<svg width="11239" height="5273" viewBox="0 0 11239 5273" fill="none" xmlns="http://www.w3.org/2000/svg">
<path d="M22.6554 3796.9L6515.18 5271.49C6516.62 5271.82 6518.13 5271.68 6519.5 5271.1L10141.7 3710.4C10148 3707.7 10147.1 3698.52 10140.4 3697.12L3775.23 2363.42C3773.93 2363.15 3772.57 2363.25 3771.32 2363.72L21.7269 3783.53C15.2407 3785.99 15.892 3795.37 22.6554 3796.9Z" fill="#FCB600" fill-opacity="0.48" stroke="#FF2E00"/>
<path d="M2610 3060L6642 3064L6866 3397H2802L2610 3060Z" fill="black" fill-opacity="0.19"/>
<path d="M7214 4436V4208H7398V4392L7214 4436Z" fill="#683F29" stroke="black"/>
<path fill-rule="evenodd" clip-rule="evenodd" d="M10564.3 1145.5L10564 1146.34C10561 1155.58 10556.4 1164.35 10550.6 1172.14C10515.1 1219.68 10466.7 1256.8 10411.5 1278.52L10379.6 1327.77L10378.1 1329.49L10359.9 1358.06C10355.4 1365.23 10349.8 1371.73 10343.5 1377.39L10327.4 1391.82C10325 1393.96 10322.5 1396.06 10320 1398.1L10314.7 1404.39L10311.6 1404.67C10299.1 1414.02 10285.6 1422.06 10271.3 1428.64L10243 1441.75C10234.4 1445.74 10225.3 1448.64 10216 1450.39L10211.9 1465.26L10204.3 1482.43L10207.5 1477.11L10205.4 1519.83L10210 1553.09L10218.2 1569.99L10222 1568.89L10228.5 1591.09L10266.1 1668.57L10332.1 1763.62L10357.7 1685.12L10359.6 1685.74L10333.5 1765.68L10363.5 1808.99L10360.9 1811.99L10379.7 1827.19L10241.3 2131.97L10213.7 2287.07L10243.4 2272.54L10223.7 2296.98C10226.8 2295.75 10230 2294.42 10233 2293L10279.6 2259.6C10290.3 2248.45 10299.3 2235.67 10306.3 2221.63C10307.5 2219.25 10308.8 2216.97 10310.4 2214.82L10336.7 2178.7C10341.1 2172.68 10343.7 2165.57 10344.3 2158.15C10344.7 2153.02 10347.1 2148.25 10351 2144.88L10372.9 2125.99C10377 2122.38 10380.9 2118.4 10384.3 2114.11L10409.6 2082.84L10430.6 2081.91C10432 2081.86 10433.2 2081.6 10434.5 2081.16L10449.4 2075.78L10470 2092.44L10578.4 1958.28C10585.7 1949.26 10599 1947.86 10608 1955.15L10718.4 2044.42C10727.4 2051.71 10728.8 2064.93 10721.5 2073.95L10649.2 2163.46C10668.8 2175.14 10673.7 2201.61 10659.2 2219.53C10649.9 2230.94 10633.2 2232.71 10621.8 2223.49L10609 2213.16L10606.6 2216.14L10608.8 2218.16L10629.5 2228.41C10636.9 2232.11 10641.3 2240.06 10640.4 2248.33C10639.1 2259.95 10630.7 2269.56 10619.4 2272.42L10589.8 2279.91L10600.7 2299.44C10603.7 2304.67 10603.1 2311.15 10599.3 2315.82C10590 2327.34 10575.1 2332.79 10560.6 2330L10550.8 2328.12L10545.1 2360.72C10542.6 2375.22 10527.3 2383.65 10513.7 2378.03L10488.1 2367.48L10444.5 2387.35C10433 2392.59 10420.6 2395.6 10408 2396.22L10389.6 2397.12L10350.1 2393.49L10346.5 2403.26C10345.4 2406.39 10344.2 2409.5 10342.9 2412.59C10343 2413.25 10342.9 2413.97 10342.7 2414.73L10341.8 2417.36C10341.5 2418.18 10341.2 2418.97 10340.8 2419.73L10333 2434.35C10331.2 2437.81 10329.4 2441.23 10327.5 2444.61L10321.2 2456.28L10304.2 2482.32C10302.7 2484.57 10301 2486.67 10299.1 2488.59L10276.6 2511.5L10259.7 2527.48C10258.2 2528.84 10256.7 2530.09 10255.1 2531.23L10242.3 2540.22C10239.3 2542.34 10235.4 2542.05 10232.8 2539.98L10183.3 2550.54L10075.3 2591.85L10001.9 2596.9C9977.09 2598.6 9953.66 2585.31 9942.38 2563.14L9923.24 2525.49L9917.18 2494C9916.56 2490.76 9916.03 2487.51 9915.61 2484.25L9915.3 2482.31L9914.34 2481.67L9915.03 2480.62L9912.61 2465.47L9914.35 2457.55C9915.09 2436.68 9919.84 2416.04 9928.48 2396.78L9928.85 2395.37L9947.03 2266.99L9958.98 2219.07L9816.24 2374.71L9753.17 2496.15L9763.06 2504.15L9762.31 2505.08L9752.6 2497.24L9745.12 2511.65L9706.94 2618.11L9686.59 2627.38L9703.25 2606.77L9696.7 2604.87L9654.44 2686.25L9541.75 2857.48L9474.03 2944.08C9471.25 2947.64 9467.61 2950.31 9463.54 2951.92L9462.74 2967.08L9423.38 2965L9372.46 3019.31L9341.07 3053.53L9240.79 3177.6L8914.42 3535.99L8708.42 3787.6L8506.67 4023.01L8316.63 4211.94L8300.31 4228.62L8079.76 4501.47L8061.39 4492.45L8058.92 4495.5L7997.12 4719.25L7997.59 4719.63L8021.61 4783.48C8023.48 4788.46 8022.57 4794.06 8019.23 4798.19L7999.01 4823.21C7994.28 4829.06 7987.16 4832.47 7979.64 4832.49L7902.5 4832.71C7896.66 4832.72 7890.93 4831.09 7885.98 4827.99L7802.25 4775.66C7798.89 4773.56 7795.86 4770.99 7793.24 4768.02L7749.23 4718.14C7745.09 4713.44 7742.41 4707.63 7741.54 4701.43L7735.9 4661.45C7735.59 4659.27 7736.74 4657.15 7738.73 4656.22L7746.2 4652.72L7746.88 4614.84C7746.96 4610.61 7748.44 4606.53 7751.1 4603.24L7780.09 4567.37L7773.87 4538.33C7771.57 4527.56 7774.78 4516.36 7782.44 4508.45L7896.99 4390.27L7878.52 4375.33C7874.33 4371.95 7873.57 4365.86 7876.8 4361.56L8019.11 4171.85L8187.59 3977.62L8413.33 3698.33L8394.11 3682.8L8400.4 3675.02L8419.62 3690.55L8513.9 3573.92L8610.69 3383.18L8912.85 2941.59L8874.24 2890.81C8872.58 2888.64 8871.51 2886.07 8871.13 2883.36L8870.44 2878.51L8768.05 2979.06L8543.12 3257.34C8539.5 3261.82 8534.45 3264.91 8528.81 3266.09L8478.8 3276.57L8376.8 3463.1L8154.39 3738.27L7749.88 4178.38L7732.48 4172.78L7744.38 4182.39L7725.68 4205.54L7700.51 4264.83C7698.69 4269.1 7696.29 4273.1 7693.37 4276.72L7656.04 4322.89L7653.95 4321.58L7616.73 4367.63L7474.95 4308.96L7326.81 4270.18C7321.47 4268.78 7316.29 4266.87 7311.32 4264.47L7210.96 4215.92C7204.32 4212.7 7198.36 4208.23 7193.42 4202.75L7136.77 4139.82C7134.47 4137.26 7134.37 4133.41 7136.53 4130.74L7153.73 4109.45L7150.43 4105.7L7150.65 4105.5L7153.93 4109.21L7158.31 4103.79L7157.74 4103.05C7157.17 4102.32 7157.18 4101.29 7157.76 4100.57L7192.94 4057.04C7196.49 4052.65 7201.65 4049.87 7207.27 4049.34L7263.88 4043.91C7265.86 4043.72 7267.85 4043.68 7269.83 4043.79L7382.94 4049.86C7386.12 4050.03 7389.31 4049.65 7392.37 4048.75L7466.43 4026.89L7537.49 3997.5L7547.96 4009.25L7773.79 3722.85L8005.31 3436.41L7956.06 3448.25L7954.66 3442.42L8011.5 3428.75L8074.38 3350.97L8025.13 3362.81L8023.73 3356.97L8079.86 3343.48L8384.15 2914.48L8681.8 2461.05L8767.25 2355.32L8755.85 2366.25L8782.6 2156.62C8782.45 2156.69 8782.29 2156.77 8782.14 2156.86L8776.71 2159.68C8774.21 2160.99 8771.45 2158.43 8772.57 2155.83L8777.7 2144C8781.69 2134.79 8789.9 2128.08 8799.72 2126L8819.99 2121.71C8822.92 2121.09 8825.91 2120.78 8828.9 2120.8L8853.01 2120.92C8859.51 2120.95 8865.97 2121.96 8872.17 2123.91L8886.65 2128.46C8890.07 2129.53 8893.36 2130.93 8896.49 2132.64L8903.1 2131.79C8892.03 2124.2 8879.41 2118.97 8866.02 2116.52C8839.71 2111.72 8812.64 2113.06 8786.93 2120.44L8783.08 2121.54L8754.6 2163.3C8747.59 2173.58 8737.6 2181.47 8725.98 2185.91L8721.67 2187.56C8714.2 2190.41 8706.22 2191.69 8698.24 2191.31L8691.76 2191.01L8699.49 2176.68L8714.77 2153.63C8710.58 2157.88 8706.93 2162.67 8703.93 2167.89L8690.99 2190.38L8815.02 1904.89L8830.59 1870.75L8834.93 1859.65L8835.43 1858.38L8836.02 1858.86L8873.29 1777.12L8886.08 1750.17L8925.05 1701.95L8963.45 1645.42C8964.91 1643.27 8966.68 1641.36 8968.71 1639.73L8980.22 1630.52L8984.48 1625.25L8986.24 1625.7L9286.16 1385.64L9443.46 1286.48L9522.11 1236.9L9591.13 1176.96L9616.92 1192.77L9618.89 1188.89L9620.02 1189.47L9620.75 1188.04L9795.94 1257.64L9889.7 1271.98L9977.5 1273.24L9967.6 1287.88L10011.3 1263.26L10010.1 1267.21C10008.7 1272.11 10007.7 1277.08 10007 1282.09L10032.9 1253.77C10035.1 1247.4 10037.6 1241.13 10040.5 1235.01L10052.8 1208.68C10067.1 1178.13 10086.9 1150.48 10111.3 1127.11L10114.4 1123.72L10115.6 1120.41L10126.8 1110.23L10145.7 1089.73L10142.9 1095.67L10160.9 1079.33L10138.1 1089.22L10192.1 978.743C10206.3 949.883 10226.9 924.698 10252.4 905.172C10259.1 900.093 10266.3 895.889 10274 892.663L10297.8 882.704C10304.7 879.846 10311.7 877.573 10318.9 875.909C10351.8 868.314 10386.2 869.505 10418.5 879.361L10428.6 882.439C10446.1 887.774 10462.3 896.622 10476.2 908.44L10518.1 943.893C10533.8 957.157 10546.2 973.77 10554.6 992.506L10560.3 1005.23C10566.5 1019.03 10570.3 1033.74 10571.7 1048.79L10573.3 1065.09C10575.8 1092.23 10572.7 1119.6 10564.3 1145.5ZM10353.7 995.792L10404.3 1044.59L10357.5 994.122L10353.7 995.792ZM10433.7 1247.84L10422.8 1262.55L10433.2 1250.85L10433.7 1247.84ZM10261.1 2276.1C10265.7 2272.63 10270.1 2268.9 10274.3 2264.94L10261.1 2276.1ZM8909.32 2142.59L8911.66 2138.39C8910.85 2137.68 8910.02 2136.99 8909.18 2136.31L8908.32 2141.47C8908.66 2141.84 8908.99 2142.21 8909.32 2142.59ZM9123.35 1835.23L9104.34 1837.24L9094.6 1838.99L9082.28 1859.34L8998.36 2031.84L9064.14 1994.39L9069.23 1999.1C9072.64 1997 9076.08 1994.83 9079.54 1992.59L9075.81 1989.02L9080.66 1983.97L9085.55 1988.66C9109.88 1972.48 9135.24 1952.73 9160.39 1927.36L9143.95 1908.32L9145.08 1907.34L9161.45 1926.29C9169.34 1918.28 9177.22 1909.7 9185.02 1900.51C9186.87 1898.33 9188.7 1896.15 9190.51 1893.95L9159.94 1869.24L9161.82 1866.91L9192.41 1891.63C9235.91 1838.36 9267.23 1781.49 9289.67 1737.26L9249.98 1792.95L9230.91 1777.53L9271.67 1708.86L9123.35 1835.23ZM10035.6 1443.86L10038.7 1443.59L10040.1 1444.72L10035.6 1443.86ZM10081.5 1483.35L10080.3 1481.74L10081.4 1484.11L10081.5 1483.35ZM9776.84 1970.35L9779.94 1965.75L9781.47 1967.27L9776.84 1970.35ZM8873.99 2875.03L8875.09 2882.8C8875.38 2884.84 8876.18 2886.76 8877.42 2888.39L8915.23 2938.11L8958.89 2874.3L9046.28 2705.84L8873.99 2875.03ZM7647.66 4145.46L7685.54 4157.66L7675.79 4169.72C7671.75 4174.72 7665.56 4177.47 7659.15 4177.12L7575.7 4172.6L7567.82 4106.58C7566.89 4098.81 7569.14 4090.99 7574.06 4084.91L7585.32 4070.97L7625.48 4129C7630.86 4136.77 7638.66 4142.56 7647.66 4145.46Z" fill="black" fill-opacity="0.16"/>
<path d="M7367 695.436L7380 483.436H7630L7647 695.436H7367Z" fill="#91644A" stroke="white" stroke-opacity="0.2" stroke-width="3"/>
<path d="M7201.55 1634.61H7365.87" stroke="black" stroke-width="1.5"/>
<g filter="url(#filter0_f_482_120)">
<path d="M7346.25 856.391V1160.81" stroke="black"/>
</g>
<path d="M7761.1 4673.15L7731.58 4645.6C7729.98 4644.1 7729.54 4641.73 7730.5 4639.76L7741.14 4617.9L7790.19 4588.15L7895.65 4526.35H7971.67L8030.49 4560.91C8035.07 4563.6 8037.89 4568.52 8037.89 4573.84V4606.01C8037.89 4613.53 8034.5 4620.66 8028.66 4625.41L7968.8 4674.06C7964.27 4677.75 7958.79 4680.08 7952.99 4680.78L7854.98 4692.71C7851.05 4693.19 7847.07 4693.1 7843.16 4692.44L7777.58 4681.31C7771.41 4680.26 7765.68 4677.43 7761.1 4673.15Z" fill="black" fill-opacity="0.25"/>
<path d="M7976.87 4539.7L7878.48 4313.48V4297.46H7689.64L7671.6 4497.36C7670.61 4508.32 7675.16 4519.06 7683.72 4525.98L7706.81 4544.66V4590.77C7706.81 4595 7708.22 4599.11 7710.82 4602.45L7736.74 4635.71C7742.61 4643.25 7751.63 4647.66 7761.19 4647.66H7917.59C7922.4 4647.66 7927.03 4645.83 7930.55 4642.55L7971.41 4604.42C7976.27 4599.88 7979.03 4593.53 7979.03 4586.87V4550.07C7979.03 4546.5 7978.3 4542.97 7976.87 4539.7Z" fill="black"/>
<g filter="url(#filter1_f_482_120)">
<path d="M7677.38 4459.97L7733.91 4541.31C7735.43 4543.49 7736.24 4546.08 7736.24 4548.73V4594.28C7736.24 4599.02 7738.64 4603.44 7742.61 4606.02L7787.92 4635.44C7791 4637.44 7794.6 4638.5 7798.27 4638.5H7907.74C7913.95 4638.5 7919.72 4635.31 7923.01 4630.04L7966.2 4560.93C7967.9 4558.23 7967.17 4554.67 7964.56 4552.84L7851.5 4473.7" stroke="white" stroke-opacity="0.63"/>
</g>
<g filter="url(#filter2_f_482_120)">
<path d="M7777.93 4331.79L7801.28 4360.12C7802.06 4361.07 7802.72 4362.1 7803.25 4363.21L7831.88 4423.34M7831.88 4423.34H7784.93C7780.37 4423.34 7775.93 4424.76 7772.22 4427.39L7706.81 4473.7M7831.88 4423.34L7959.41 4508.03" stroke="black" stroke-width="0.7"/>
</g>
<g filter="url(#filter3_f_482_120)">
<path d="M7976.58 4622.48L7940.5 4656.15C7935.32 4660.99 7928.49 4663.68 7921.4 4663.68H7816.23C7810.41 4663.68 7804.68 4662.23 7799.56 4659.45L7731.33 4622.48" stroke="black" stroke-width="0.8"/>
</g>
<path d="M7454.2 4384.43L6931.83 4574.41V4609.64C6931.83 4613.08 6934.33 4616.01 6937.72 4616.55L7021.34 4629.87C7028.63 4631.04 7036.07 4630.77 7043.26 4629.09L7151.83 4603.76C7157.2 4602.51 7162.44 4600.74 7167.47 4598.47L7307.05 4535.5L7454.2 4492.01V4384.43Z" fill="black"/>
<g filter="url(#filter4_f_482_120)">
<path d="M6926.92 4581.28L7001.17 4593.88C7005.6 4594.63 7010.12 4594.78 7014.6 4594.33L7136.99 4581.87C7140.81 4581.48 7144.57 4580.66 7148.21 4579.42L7212.79 4557.51C7219.95 4555.08 7226.49 4551.08 7231.92 4545.81L7279.82 4499.31C7283.21 4496.03 7287.36 4493.65 7291.91 4492.4L7410.06 4459.97" stroke="white" stroke-opacity="0.77" stroke-width="0.3"/>
</g>
<g filter="url(#filter5_f_482_120)">
<path d="M7206.5 4551.53L7252.94 4493.01C7254.68 4490.83 7256.61 4488.81 7258.72 4486.98L7281.92 4466.88C7287.16 4462.33 7293.38 4459.06 7300.1 4457.32L7334.03 4448.53" stroke="white" stroke-width="0.3"/>
</g>
<path d="M7437.03 4297.46V4267.7H7375.72V4300.97C7375.72 4307.39 7372.64 4313.42 7367.44 4317.18L7299.69 4366.13L7252.06 4319.73C7246.45 4314.27 7243.29 4306.78 7243.29 4298.95V4267.7L7159.9 4253.97L7123.12 4321.49L7079.25 4385.05C7077.44 4387.67 7075.2 4389.97 7072.62 4391.84L6980.84 4458.22C6979.23 4459.38 6977.71 4460.67 6976.29 4462.06L6935.67 4501.86C6931.64 4505.81 6929.37 4511.22 6929.37 4516.86V4572.83C6929.37 4573.76 6930.01 4574.56 6930.92 4574.77L6971.95 4584.35C6976.24 4585.35 6980.66 4585.74 6985.06 4585.51L7103.26 4579.39C7108.3 4579.12 7113.27 4578.15 7118.03 4576.48L7197.48 4548.67C7204.92 4546.07 7211.3 4541.09 7215.64 4534.51L7250.74 4481.29C7261.57 4464.86 7279.07 4454.03 7298.61 4451.66L7456.65 4432.5V4373.13C7456.65 4368.48 7456.01 4363.86 7454.73 4359.39L7437.03 4297.46Z" fill="black"/>
<g filter="url(#filter6_f_482_120)">
<path d="M7201.6 4297.46L7145.19 4393.59L7213.86 4459.97" stroke="white" stroke-width="0.3"/>
</g>
<g filter="url(#filter7_f_482_120)">
<path d="M7010.3 4524.06H6968.61V4542.37H7010.3V4524.06Z" fill="white"/>
</g>
<path d="M7929.68 3664.56L7938.6 3354.65L7941.95 2821.36L7972.07 2339.71L7981 2218.33L7735.55 1686.33L7476.72 1345.44H7378.54L7291.51 1502.97L7084 2068.55V2339.71L7137.55 2879.46L7171.02 3411.47V3891.82L7175.49 4261.12L7311 4300.92C7320.07 4303.58 7329.77 4303.18 7338.59 4299.78L7438.78 4261.12L7476.72 3664.56V3310.75L7438.78 3101.56L7471.09 3061.98C7474.73 3057.52 7476.72 3051.93 7476.72 3046.17V2688.36L7521.34 2300.98L7559.28 2486.92L7608.37 3101.56L7652.99 3310.75V3468.28V3829.84L7644.07 4086.8L7652.64 4323.8C7652.84 4329.18 7657.26 4333.44 7662.64 4333.44H7769.67C7772.21 4333.44 7774.73 4333.15 7777.21 4332.59L7898.44 4305.03V3951.22L7929.68 3664.56Z" fill="#111110"/>
<g filter="url(#filter8_f_482_120)">
<path d="M7755.81 4328.64L7888.24 4298.88L7890.7 4035.66L7917.67 3751.83L7935.45 3450.27L7933.61 3148.71L7969.18 2545.59V2266.35L7820 2591.44L7740 2389.44V2690.21L7688.93 2643.47L7614 2467.44L7644.47 2602.77L7582 2545.59L7706.76 2879.44L7644.47 2602.77L7688.93 2643.47L7740 2763.44V2690.21L7820 2763.44L7658 3051.44L7820 2823.44L7740 3148.71L7755.81 3362.72V3733.52V4328.64Z" fill="black" fill-opacity="0.47"/>
</g>
<g filter="url(#filter9_f_482_120)">
<path d="M7959.37 2403.68L7925.03 2431.15L7905.41 2440.3V2458.61" stroke="black"/>
</g>
<g filter="url(#filter10_f_482_120)">
<path d="M7748.45 1412.59V1813.15" stroke="black" stroke-opacity="0.63" stroke-width="0.3"/>
</g>
<g filter="url(#filter11_f_482_120)">
<path d="M8028.04 1359.95L8153.11 1421.75V1492.7M8153.11 1492.7L8028.04 1460.66M8153.11 1492.7V1543.06H8055.01" stroke="white" stroke-width="0.2"/>
</g>
<g filter="url(#filter12_f_482_120)">
<path d="M7172.12 863.254H7010.26V876.987L7035.95 888.226C7044.9 892.141 7054.52 894.294 7064.28 894.568L7172.12 897.587V863.254Z" fill="white"/>
</g>
<g filter="url(#filter13_f_482_120)">
<path d="M7172.12 911.32L7222.35 1085.16C7228.09 1105.02 7235.95 1124.2 7245.79 1142.37L7343.79 1323.32" stroke="black" stroke-opacity="0.19" stroke-width="0.4"/>
<path d="M7172.12 911.32L7222.35 1085.16C7228.09 1105.02 7235.95 1124.2 7245.79 1142.37L7343.79 1323.32" stroke="black" stroke-opacity="0.25" stroke-width="0.4"/>
</g>
<g filter="url(#filter14_f_482_120)">
<path d="M7181.93 911.32L7232.16 1085.16C7237.9 1105.02 7245.76 1124.2 7255.6 1142.37L7353.61 1323.32" stroke="black" stroke-opacity="0.1" stroke-width="0.3"/>
<path d="M7181.93 911.32L7232.16 1085.16C7237.9 1105.02 7245.76 1124.2 7255.6 1142.37L7353.61 1323.32" stroke="white" stroke-opacity="0.23" stroke-width="0.3"/>
</g>
<g filter="url(#filter15_f_482_120)">
<path d="M6823.87 1556.79L6878.53 1454.75C6881.19 1449.79 6885.91 1446.26 6891.42 1445.12L6961.82 1430.52C6967.88 1429.26 6974.14 1429.3 6980.19 1430.63L7054.4 1446.92" stroke="black" stroke-opacity="0.66" stroke-width="0.8"/>
</g>
<g filter="url(#filter16_f_482_120)">
<path d="M7721.48 1321.03V1664.37" stroke="black" stroke-width="0.5"/>
</g>
<g filter="url(#filter17_f_482_120)">
<path d="M7920.12 1650.64L7694.5 1664.37V1684.97" stroke="black" stroke-width="0.5"/>
</g>
<g filter="url(#filter18_f_482_120)">
<path d="M7699.4 1694.13H7952.01" stroke="black" stroke-width="1.2"/>
</g>
<g filter="url(#filter19_f_482_120)">
<path d="M7900.51 682.434L7964.27 849.523L7802.41 1055.52M7802.41 1055.52L7814.67 833.5M7802.41 1055.52L7722.7 1165.39M7643 1275.26L7722.7 1165.39M7722.7 1165.39V1007.46" stroke="black" stroke-opacity="0.34" stroke-width="2"/>
</g>
<g filter="url(#filter20_f_482_120)">
<path d="M7113.26 1040.77C7113.26 1025.22 7107.51 1010.21 7097.11 998.648L6998 888.436L7081.38 1462.95H7105.9L7098.55 1341.64H7107.41C7115.67 1341.64 7123.41 1345.72 7128.06 1352.55L7154.95 1391.99L7206.46 1414.88L7238.34 1403.44L7172.12 1341.64L7270.22 1391.99L7348.7 1403.44L7238.34 1357.66L7113.26 1261.52L7289.84 1229.48H7113.26V1040.77Z" fill="black" fill-opacity="0.21"/>
</g>
<g filter="url(#filter21_f_482_120)">
<path d="M7937.29 2440.3L7909.34 2522.92C7908.37 2525.77 7906.63 2528.28 7904.3 2530.19L7849 2575.34V2557.74C7849 2556.09 7847.66 2554.74 7846 2554.74H7819.57" stroke="black" stroke-opacity="0.48"/>
</g>
<g filter="url(#filter22_f_482_120)">
<path d="M7378.13 1465.24H7321.72H7228.53" stroke="black" stroke-opacity="0.43" stroke-width="1.5"/>
</g>
<g filter="url(#filter23_f_482_120)">
<path d="M7096.09 1618.59L7172.12 1632.33H7229.49C7232.02 1632.33 7234.46 1631.37 7236.31 1629.64L7265.9 1602.03C7268.67 1599.43 7272.33 1597.99 7276.13 1597.99H7297.2H7468.87" stroke="black" stroke-opacity="0.55" stroke-width="1.5"/>
</g>
<g filter="url(#filter24_f_482_120)">
<path d="M7414.92 2470.05L7498.09 2547.67C7499.84 2549.31 7501.97 2550.46 7504.3 2551.03L7640.54 2584.5" stroke="black" stroke-opacity="0.22" stroke-width="4"/>
</g>
<g filter="url(#filter25_f_482_120)">
<path d="M7656 2141.44L7440 2201.44L7546 2051.44L7427.18 2155.44L7392 2269.44L7294.75 2201.44L7383.04 2331.44L7254 2239.44L7383.04 2403.44L7130 2211.44L7383.04 2476.92L7170 2403.44L7383.04 2603.44L7130 2476.92L7294.75 2763.44V3394.77L7319.27 4269.12H7407.04L7426.46 3891.46L7444.54 3560.71L7438.54 3299.44L7429.63 3172.75L7441.18 2847.72L7460.29 2662.32L7471.29 2275.44L7486 2217.44L7656 2141.44Z" fill="black" fill-opacity="0.55"/>
</g>
<g filter="url(#filter26_f_482_120)">
<path d="M7118.21 4386.72L6953.9 4489.72L7037.28 4464.55L7118.21 4453.1L7120.66 4414.19L7153.77 4453.1H7189.33L7118.21 4386.72Z" fill="white" fill-opacity="0.17"/>
</g>
<g filter="url(#filter27_f_482_120)">
<path d="M7878.48 4584.57C7878.48 4584.01 7878.03 4583.57 7877.48 4583.57H7820.62C7820.07 4583.57 7819.62 4584.01 7819.62 4584.57V4605.46C7819.62 4606.01 7820.07 4606.46 7820.62 4606.46H7877.48C7878.03 4606.46 7878.48 4606.01 7878.48 4605.46V4584.57Z" fill="#D9D9D9"/>
</g>
<g filter="url(#filter28_f_482_120)">
<path d="M7336.44 3255.15L7230.98 3440.55L7137.79 3561.86" stroke="black" stroke-opacity="0.21" stroke-width="6"/>
</g>
<g filter="url(#filter29_f_482_120)">
<path d="M7336.44 3145.28L7230.98 3330.68L7137.79 3451.99" stroke="black" stroke-opacity="0.22" stroke-width="6"/>
</g>
<path d="M7527.69 1629.96L7456.61 1497.28L7436.99 1549.92L7423.14 1629.62C7422.57 1632.88 7421.07 1635.89 7418.82 1638.31L7363.77 1697.3C7358.85 1702.57 7351.96 1705.56 7344.76 1705.56H7265.31L7115.71 1668.94L7202.94 1735.74C7208.52 1740.01 7214.74 1743.36 7221.38 1745.67L7349.07 1790.11C7353.71 1791.73 7358.52 1792.8 7363.41 1793.32L7479.37 1805.51C7506.53 1808.37 7530.18 1787.07 7530.18 1759.76V1639.88C7530.18 1636.42 7529.33 1633.01 7527.69 1629.96Z" fill="black"/>
<g filter="url(#filter30_f_482_120)">
<path d="M7861.27 1559.08L7701.86 1578.53L7542.45 1597.99L7750.91 1428.61L7522.83 1559.08L7706.76 1428.61L7468.87 1559.08V2051.19L7983.89 2096.97L7542.45 1829.17L7616.02 1815.43L7799.96 1874.94L7964.27 1778.81L7542.45 1712.43L7652.81 1632.32L7861.27 1559.08Z" fill="black" fill-opacity="0.16"/>
</g>
<g filter="url(#filter31_f_482_120)">
<path d="M7619.72 2432.39L7510.56 2273.21L7586.8 2342.54C7599.19 2353.81 7615.67 2359.48 7632.38 2358.24L7790.14 2346.46L7641.22 2437.01C7633.96 2441.42 7624.52 2439.39 7619.72 2432.39Z" fill="black" fill-opacity="0.8"/>
</g>
<g filter="url(#filter32_f_482_120)">
<path d="M7444.35 1531.61H7259.74C7256.98 1531.61 7254.28 1532.43 7251.98 1533.96L7191.12 1574.53C7188.33 1576.4 7185.05 1577.39 7181.69 1577.39H7083.83" stroke="black" stroke-opacity="0.1" stroke-width="3"/>
</g>
<g filter="url(#filter33_f_482_120)">
<path d="M7208.91 1634.61L7299.02 1666.65C7307.13 1669.53 7316.12 1668.38 7323.23 1663.55L7365.87 1634.61" stroke="black" stroke-opacity="0.5" stroke-width="3"/>
</g>
<g filter="url(#filter34_f_482_120)">
<path d="M7628.28 3465.72H7733.74" stroke="black" stroke-opacity="0.31" stroke-width="10"/>
</g>
<path d="M7082 2219.44L6966 2031.44L7054 1939.44L7106 2031.44L7082 2219.44Z" fill="#8B5537"/>
<path d="M8242 1207.44C8252.67 1202.1 8306.2 1135.34 8319 1112.94" stroke="#FCB600" stroke-width="2"/>
<path d="M8202 1163.44L8234 1183.44L8254.13 1215.64C8266.25 1235.04 8288.51 1245.68 8311.23 1242.94L8332 1240.44" stroke="#FCB600" stroke-width="2"/>
<path d="M8406 875.436L8425.34 871.808C8448.55 867.458 8470 885.26 8470 908.869C8470 923.541 8458.11 935.436 8443.43 935.436H8406V875.436Z" fill="#91644A"/>
<path d="M8242 1463.44L8154 1287.44L8179.5 1243.73C8199.11 1210.11 8205.31 1170.33 8196.87 1132.34C8196.29 1129.74 8195.93 1127.1 8195.8 1124.44L8193.57 1079.8C8193.2 1072.37 8190.77 1065.19 8186.55 1059.06C8183.64 1054.82 8182.51 1049.59 8183.42 1044.53L8188.53 1016.1C8189.51 1010.67 8190 1005.16 8190 999.642V959.436L8205.77 945.494C8206.75 944.627 8207.6 943.616 8208.27 942.496L8216.5 928.936H8245.5L8430 939.436L8452.48 934.439C8460.6 932.635 8468.99 936.085 8473.49 943.082C8479.81 952.914 8479.35 965.638 8472.34 974.988L8454 999.436L8474.78 1007.75C8480.35 1009.98 8484 1015.37 8484 1021.36C8484 1036.18 8475.83 1049.79 8462.76 1056.76L8454 1061.44L8470.07 1090.36C8477.22 1103.23 8470.61 1119.4 8456.5 1123.58L8430 1131.44L8408.56 1174.31C8402.91 1185.63 8395.15 1195.76 8385.72 1204.19L8372 1216.44L8339 1238.44L8342.35 1248.29C8361.63 1304.94 8362.55 1366.23 8345 1423.44L8242 1463.44Z" fill="#8B5537"/>
<path d="M6953.45 2062.39L6948 1995.44L6912 2033.44L6919 2107.44L6922 2123.44L6927.23 2119.6C6933.67 2114.88 6939.07 2108.87 6943.09 2101.95L6945.4 2097.96C6951.65 2087.2 6954.46 2074.79 6953.45 2062.39Z" fill="black"/>
<path d="M7682 1039.44L7702 827.436L7790 1551.44L7918 2183.44L7859.09 2203.55C7845.02 2208.35 7829.44 2204.51 7819.22 2193.71L7685.1 2052.06C7667.14 2033.09 7652.27 2011.43 7641.02 1987.86L7580.34 1860.72C7576.15 1851.93 7573.53 1842.48 7572.61 1832.78L7546 1551.44L7594 1375.44L7658 1171.44L7682 1039.44Z" fill="#111110"/>
<path d="M7314 695.436L7714 715.436L7734 1275.44L7314 1231.44V695.436Z" fill="white"/>
<path d="M7487 767.436L7475.58 783.641C7463.3 801.068 7443.32 811.436 7422 811.436V743.436L7446 703.436L7522 727.436L7658 639.436L7694 687.436L7681.11 734.717C7673.79 761.555 7660.84 786.528 7643.12 807.975L7642.19 809.097C7633.85 819.197 7617.49 812.009 7619.29 799.032L7627 743.436L7601.41 805.689C7593.88 824.01 7590 843.627 7590 863.436L7538 767.436H7487Z" fill="black"/>
<path d="M7504 787.436L7464 715.436L7524 683.436L7590 715.436L7550 787.436L7571.24 819.978C7588.13 845.852 7598.12 875.619 7600.25 906.443L7618 1163.44L7638 1395.44L7590 1599.44L7474 1395.44V878.436C7474 865.893 7476.48 853.475 7481.31 841.897L7504 787.436Z" fill="#111110"/>
<path d="M7610 1559.44L7570 1619.44H7526L7550 1527.44L7570 1399.44L7734 1159.44V1331.44L7610 1451.44V1495.44L7734 1359.44V1527.44L7610 1559.44Z" fill="black"/>
<path d="M7485.97 2062.48L7373.42 2170.83C7331.87 2210.83 7265.67 2209.31 7226 2167.44L7482 1959.44L7566 1743.44L7674 2011.44C7606.72 1995.24 7535.83 2014.48 7485.97 2062.48Z" fill="black"/>
<path d="M7572.68 1889.99L7518 1885.44L7474 1951.44H7562.64C7574.21 1951.44 7584.5 1944.06 7588.21 1933.1L7592.56 1920.3C7597.36 1906.14 7587.58 1891.23 7572.68 1889.99Z" stroke="white" stroke-width="9"/>
<path d="M7424.4 1100.97L7362 895.436H7310L7330 1567.44L7086 2039.44L7220.27 2166.99C7235.12 2181.1 7258 2182.44 7274.39 2170.14L7387.31 2085.45C7399.73 2076.14 7411.02 2065.41 7420.96 2053.49L7455.18 2012.42C7488.83 1972.04 7515.64 1926.41 7534.53 1877.36L7546.28 1846.84C7557.34 1818.12 7563.32 1787.7 7563.94 1756.93L7569.34 1488.08C7569.78 1466.5 7566.22 1445.03 7558.84 1424.75L7506 1279.44L7438.28 1136.86C7432.77 1125.26 7428.13 1113.26 7424.4 1100.97Z" fill="#111110" stroke="black" stroke-width="11"/>
<path d="M7194 703.436L7338 619.436L7382 983.436L7414 1551.44L7396 1695.44L7378.46 1781.9C7371.54 1816 7358.81 1848.67 7340.84 1878.46L7292 1959.44L7220.16 2034.83C7200.94 2055 7177.62 2070.79 7151.76 2081.13L7126 2091.44L7066 1979.44L7046 1863.44C7059.33 1804.77 7119.66 1724.86 7123 1587.44C7126.37 1448.93 7080 1327.44 7086 1307.44L7066 1011.44L7014 759.436L7194 703.436Z" fill="#111110"/>
<path d="M6966 1751.44L6954.38 1746.07C6945.14 1741.81 6934.63 1741.23 6924.97 1744.44L6904 1751.44" stroke="#FCB600" stroke-width="2"/>
<path d="M6858.92 1615.44H6868C6868 1607.7 6861.73 1601.44 6854 1601.44H6852.63C6844.61 1601.44 6836.98 1604.92 6831.73 1610.98L6824.39 1619.45C6817.69 1627.18 6814 1637.07 6814 1647.3V1651.44L6828.92 1630.77C6835.88 1621.14 6847.04 1615.44 6858.92 1615.44Z" stroke="#FCB600" stroke-width="2"/>
<path d="M6841.39 1775.44H6826L6852 1857.44L6897.04 1831.45C6901.66 1828.79 6905.91 1825.52 6909.69 1821.75L6940 1791.44H6893.73C6889.95 1791.44 6886.22 1790.64 6882.76 1789.11L6861.7 1779.74C6855.3 1776.9 6848.39 1775.44 6841.39 1775.44Z" stroke="#FCB600" stroke-width="2"/>
<path d="M6790.84 1520.61L6878 1123.44L6938 947.436L6968 859.436L6984 769.436L7030 763.436L7094 835.436L7122 1143.44L7069.5 1373.44L7048.25 1488.44L7032.62 1574.94L7014 1596.44L7020 1640.44L7093 1949.44L7074.9 1945.95C7052.98 1941.74 7030.29 1945.28 7010.7 1955.96C6987.22 1968.77 6967.01 1986.83 6951.65 2008.72L6933.34 2034.82C6929.79 2039.88 6926.89 2045.36 6924.71 2051.13L6920.58 2062.04C6916.27 2073.44 6915.01 2085.77 6916.92 2097.81L6921 2123.44L6838 1823.44L6803 1687.44L6796 1658.44V1596.44L6790.33 1528.34C6790.11 1525.75 6790.28 1523.15 6790.84 1520.61Z" fill="#111110"/>
<path d="M7527 1772.94L7521.13 1776.11C7517.35 1778.16 7515 1782.11 7515 1786.41V1786.41C7515 1790.29 7518.15 1793.44 7522.03 1793.44H7525.85C7530.23 1793.44 7534.24 1790.96 7536.2 1787.04L7536.75 1785.93C7538.78 1781.87 7538.65 1777.07 7536.4 1773.13L7534.89 1770.49C7533.03 1767.23 7530.05 1764.76 7526.5 1763.52L7524.04 1762.67C7521.72 1761.86 7519.23 1761.69 7516.83 1762.17V1762.17C7514.36 1762.66 7512.17 1764.05 7510.66 1766.06L7509.12 1768.11C7506.77 1771.24 7505.5 1775.05 7505.5 1778.97V1787.94" stroke="black" stroke-width="11"/>
<path d="M7521.56 1756.44H7522.69C7526.16 1756.44 7529.56 1757.41 7532.5 1759.25C7537.39 1762.3 7541.25 1766.75 7543.59 1772.02L7543.93 1772.78C7545.29 1775.85 7546 1779.17 7546 1782.53V1783.46C7546 1791.87 7540.79 1799.39 7532.91 1802.34L7530 1803.44L7527.07 1804.17C7519.11 1806.16 7510.71 1803.32 7505.58 1796.91L7502 1792.44L7501.17 1790.88C7496.85 1782.78 7497.98 1772.86 7504 1765.94L7508.52 1761.64C7512.04 1758.3 7516.71 1756.44 7521.56 1756.44Z" stroke="white" stroke-width="3"/>
<path d="M7074 1319.44L6858 1395.44L7006 1267.44L7074 1219.44V1319.44Z" stroke="#110E03" stroke-width="7"/>
<path d="M6874 1227.44L6906 1199.44M6906 1199.44L6938 1171.44L6984 1193.44L6976.53 1180.77C6958.13 1149.57 6913.98 1146.96 6892.03 1175.77L6874 1199.44H6906Z" stroke="#110E03" stroke-width="7"/>
<path d="M7212 1825.62V1765.44L7072 1795.44V1851.44L7162.9 1867.02C7188.56 1871.42 7212 1851.66 7212 1825.62Z" fill="black"/>
<path d="M8006 779.436H7966L7906 1307.44L7946 1393.44L8013 1505.44C8021.46 1537.97 8039.8 1567.08 8065.49 1588.75L8090 1609.44L8128.55 1626.68C8151.26 1636.84 8177.83 1632.45 8196.06 1615.52L8250 1565.44L8308 1465.44L8342 1423.44L8266 1383.44L8180 1285.44V1211.44L8166 1241.44L8090 1103.44L8006 779.436Z" fill="#111110"/>
<path d="M7421 808.436L7356 733.436L7340 635.436L7365 572.436L7366.59 576.237C7374.05 594.025 7386.27 609.415 7401.9 620.717L7443 650.436L7508 687.436L7537.55 694.527L7589.13 662.053C7600.28 655.037 7610.01 645.993 7617.82 635.39C7628.33 621.129 7634 603.879 7634 586.164V571.436L7648 603.436L7655.71 632.071C7662.16 656.041 7663.45 681.107 7659.49 705.613C7656.51 724.072 7650.99 742.03 7643.08 758.975L7620 808.436L7558 699.436L7537.55 694.527L7529.75 699.436L7508 687.436L7454 739.436L7421 808.436Z" fill="white"/>
<path d="M7982 775.436L7818 727.436L7690 667.436L7652 615.436L7706 991.436L7712 1535.44L7752 1861.44L7816.72 2136.97C7820.21 2151.82 7826.37 2165.92 7834.9 2178.57L7870.87 2231.95C7879.47 2244.71 7891.31 2254.95 7905.18 2261.6C7923.12 2270.21 7944.22 2269.01 7961.06 2258.42L7992.08 2238.93C7999.48 2234.28 8003.91 2226.1 8003.77 2217.36L8002 2107.44L7982 1903.44L7912 1559.44L7926 1335.44L7969 1075.44L7982 775.436Z" fill="#111110"/>
<path d="M6934 1266.44L6840 1351.44L6922 1245.44L7054 1171.44L7076 1127.44L7064 999.436L7076 1083.44L7094 1161.44V1255.44L7034 1575.44L7012 1597.44L7091 1939.44L7064 1859.44L7029 1844.44L7048 1805.44L7023 1795.44L6977 1788.44L7034 1746.44L7029 1721.44H6927L6944 1699.44H7023L7017 1691.44L6955 1681.44V1663.44L7017 1676.44L7012 1663.44L6971 1647.44V1631.44L7017 1647.44L6990 1625.44L6971 1606.44H6927H6898L6915 1588.44H6971L7002 1597.44V1588.44L6955 1575.44L6927 1570.44L6955 1555.44L6990 1561.44L7012 1570.44L6990 1547.44L6927 1542.44L6842 1547.44L6854 1535.44L6824 1523.44L6868 1513.44L6900 1523.44L6978 1499.44L6990 1487.44L6912 1499.44H6824L6794 1535.44V1499.44L6842 1477.44H6934L6990 1467.44L7006 1433.44L6950 1455.44H6900L6950 1423.44L7006 1411.44L7034 1371.44L6912 1423.44L6842 1445.44H6824L6842 1423.44L6934 1399.44L7054 1337.44L7076 1197.44L6934 1266.44Z" fill="black"/>
<path d="M6806 1467.44L6824 1445.44M6824 1445.44L6842 1423.44L6934 1399.44L7054 1337.44L7076 1197.44L6934 1266.44L6840 1351.44L6922 1245.44L7054 1171.44L7076 1127.44L7064 999.436L7076 1083.44L7094 1161.44V1255.44L7034 1575.44L7012 1597.44L7091 1939.44L7064 1859.44L7029 1844.44L7048 1805.44L7023 1795.44L6977 1788.44L7034 1746.44L7029 1721.44H6927L6944 1699.44H7023L7017 1691.44L6955 1681.44V1663.44L7017 1676.44L7012 1663.44L6971 1647.44V1631.44L7017 1647.44L6990 1625.44L6971 1606.44H6927H6898L6915 1588.44H6971L7002 1597.44V1588.44L6955 1575.44L6927 1570.44L6955 1555.44L6990 1561.44L7012 1570.44L6990 1547.44L6927 1542.44L6842 1547.44L6854 1535.44L6824 1523.44L6868 1513.44L6900 1523.44L6978 1499.44L6990 1487.44L6912 1499.44H6824L6794 1535.44V1499.44L6842 1477.44H6934L6990 1467.44L7006 1433.44L6950 1455.44H6900L6950 1423.44L7006 1411.44L7034 1371.44L6912 1423.44L6842 1445.44H6824Z" stroke="black"/>
<path d="M7077.8 1957.75L7080.83 1960.62C7085.3 1964.87 7087.33 1971.09 7086.23 1977.17L7086 1978.44L7058.58 1979.27C7054.89 1979.38 7051.25 1980.15 7047.83 1981.54L7026 1990.44L7001 2008.44L6983.01 2023.65C6977.74 2028.12 6973.57 2033.73 6970.81 2040.06L6968.38 2045.67C6967.25 2048.26 6963.49 2048 6962.73 2045.28L6959.28 2032.86C6956.6 2023.18 6958.76 2012.81 6965.09 2005.01L6978.16 1988.93C6980.05 1986.61 6982.18 1984.49 6984.52 1982.62L7003.34 1967.56C7008.42 1963.5 7014.08 1960.22 7020.12 1957.84L7034.25 1952.28C7040.69 1949.74 7047.56 1948.44 7054.48 1948.44C7063.16 1948.44 7071.51 1951.77 7077.8 1957.75Z" fill="#D9D9D9" stroke="#FFE396"/>
<path d="M6894 1583.44H6856.01C6842.06 1583.44 6828.84 1589.63 6819.91 1600.35L6814 1607.44" stroke="#110E03" stroke-width="7"/>
<path d="M7976 821.436L7994 993.436L7995.46 965.436L7996.92 937.436L8004 801.436L8020 965.436L7996.92 937.436L7995.46 965.436L8064 1037.44L8080 1097.44L8020 1087.44L7994 1097.44L8064 1109.44L8096 1121.44L8118 1163.44L8044 1121.44H7994L7998 1183.44L8031 1217.44H7994L8004 1273.44L8064 1297.44H8132V1319.44H8044L8004 1333.44V1377.44L8096 1333.44H8132L8118 1340.44L8083.78 1376.04L8083.75 1376.08C8077.97 1382.1 8073.44 1389.21 8070.43 1397L8058.31 1428.4C8048.85 1452.88 8044 1478.9 8044 1505.14V1512.11C8044 1526.21 8046.51 1540.21 8051.41 1553.44L8064 1587.44L8044 1569.44L8020 1521.44L8004 1485.44L7944 1387.44L7924 1333.44L7976 821.436Z" fill="black"/>
<path d="M6918 1683.44H6874" stroke="#110E03" stroke-width="7"/>
<path d="M6894 1731.44H6850" stroke="#110E03" stroke-width="7"/>
<path d="M7006 1747.44L6950 1767.44H6894" stroke="#110E03" stroke-width="7"/>
<path d="M7026 1807.44H6995.56C6984.15 1807.44 6973.03 1811.05 6963.8 1817.76L6934 1839.44" stroke="#110E03" stroke-width="7"/>
<path d="M6970 1623.44H6890" stroke="#110E03" stroke-width="7"/>
<path d="M6999 1683.44H6955" stroke="#110E03" stroke-width="7"/>
<path d="M7126 1383.44L7218 1443.44L7263.62 1491.73C7277.99 1506.96 7286 1527.1 7286 1548.04V1567.44H7330L7311.27 1511.24C7307.79 1500.8 7302.34 1491.13 7295.21 1482.74L7238 1415.44L7218 1351.44H7238L7198 1291.44L7218 1255.44L7158 1211.44L7218 1171.44V1147.44H7106L7126 1323.44H7158V1351.44H7126V1383.44Z" fill="black" fill-opacity="0.31"/>
<path d="M7088 1736.44L7222 1745.44L7204.42 1810.12C7200.07 1826.15 7185.31 1837.12 7168.7 1836.67L7050 1833.44L7088 1736.44Z" fill="#111110"/>
<path d="M7212 1731.44L7094 1721.44" stroke="black" stroke-width="7"/>
<path d="M7330 1227.44L7402 1391.44L7380 1039.44L7364 823.436L7345 601.436L7266 663.436L7210 735.436L7242 771.436L7186 795.436L7210 851.436L7287 1111.44L7330 1227.44Z" fill="#26261F"/>
<path d="M7658 1307.44L7714 1199.44V903.436L7681 1087.44L7648 1215.44L7571 1431.44L7544 1568.44L7546 1659.94L7561 1751.44L7626 1935.44L7559 1679.44L7555 1607.44L7557 1535.44L7594 1411.44L7658 1307.44Z" fill="#30302D"/>
<path d="M7956 1093.44L7806 1115.44" stroke="white" stroke-width="2"/>
<path d="M7962 1035.44L7812 1057.44" stroke="white" stroke-width="2"/>
<path d="M7930 1693.44L7860 1705.44" stroke="#FFE396"/>
<path d="M7818 1007.44L7844 819.436L7851.2 831.444C7854.31 836.622 7855.59 842.692 7854.84 848.684L7835 1007.44L7792 1191.44L7866 1187.44L7949 1151.44L7926 1275.44L7902 1523.44L7922 1635.44L7818 1695.44L7852.5 1708.1V1704.94L7932.5 1690.94V1693.44L7852.5 1708.1L7837 1710.94L7856 1717.94L7940.5 1704.94L7941.5 1707.94L7856 1722.44L7885 1846.44L7960.01 1813.95C7961.79 1813.18 7963.82 1814.27 7964.16 1816.18L7966.5 1829.44C7959.2 1825.62 7950.6 1825.17 7942.93 1828.2L7917 1838.44L7897.35 1847.13C7893.26 1848.93 7890 1852.2 7888.18 1856.28L7885 1863.44L7986 2027.44L7790 1807.44L7818 2027.44L7754 1823.44L7718 1523.44L7742 1367.44L7818 1007.44Z" fill="black"/>
<path d="M7844 819.436L7818 1007.44L7742 1367.44L7718 1523.44L7754 1823.44L7818 2027.44L7790 1807.44L7986 2027.44L7885 1863.44L7888.18 1856.28C7890 1852.2 7893.26 1848.93 7897.35 1847.13L7917 1838.44L7942.93 1828.2C7950.6 1825.17 7959.2 1825.62 7966.5 1829.44V1829.44L7964.16 1816.18C7963.82 1814.27 7961.79 1813.18 7960.01 1813.95L7885 1846.44L7856 1722.44L7941.5 1707.94L7940.5 1704.94L7856 1717.94L7837 1710.94L7932.5 1693.44V1690.94L7852.5 1704.94V1708.1L7818 1695.44L7922 1635.44L7902 1523.44L7926 1275.44L7949 1151.44L7866 1187.44L7792 1191.44L7835 1007.44L7854.84 848.684C7855.59 842.692 7854.31 836.622 7851.2 831.444L7844 819.436Z" stroke="black"/>
<path d="M7717 683.436L7812.27 749.541C7813.73 750.555 7813.99 752.609 7812.84 753.958L7791 779.436L7832.44 805.809C7840.75 811.096 7845.36 820.623 7844.35 830.419L7843 843.436" stroke="black" stroke-width="14"/>
<path d="M7694 1025.44L7701 1328.44L7714 1631.44" stroke="black" stroke-width="10"/>
<path d="M7730 699.436L7666 639.436L7684 839.436L7698 1045.44V1251.44L7713.5 1557.44L7727.25 1710.44L7747 1863.44L7797 2063.44L7836 2179.44L7806 2063.44L7755 1827.44L7736 1673.44L7725 1519.44L7746 1351.44L7822 999.436L7837 815.436L7782 779.436L7806 751.436L7730 699.436Z" fill="#26261F"/>
<path d="M7017 760.436L7066 991.436L7090 1297.44" stroke="black" stroke-width="8"/>
<path d="M8118 1351.44L8097.6 1375.54C8082.09 1393.87 8071.21 1415.65 8065.87 1439.06L8061.54 1458.04C8055.88 1482.81 8054.21 1508.33 8056.59 1533.62L8061 1580.44" stroke="black" stroke-width="11"/>
<path d="M8060 1277.44L8136 1297.44L8116 1257.44H8158L8096 1225.44V1209.44L8126 1197.44L8096 1169.44H8014L8082 1209.44L8060 1225.44L8096 1257.44L8060 1277.44Z" fill="black" fill-opacity="0.26"/>
<path d="M8128 1337.44L8136.7 1379.21C8137.56 1383.34 8138.96 1387.35 8140.85 1391.13L8164 1437.44" stroke="black" stroke-opacity="0.49" stroke-width="9"/>
<path d="M8160 1323.44L8168.7 1365.21C8169.56 1369.34 8170.96 1373.35 8172.85 1377.13L8196 1423.44" stroke="black" stroke-opacity="0.73" stroke-width="9"/>
<path d="M8160 1243.44L8136.68 1211.78C8133.57 1207.57 8129.89 1203.83 8125.73 1200.66L8090 1173.44" stroke="black" stroke-width="5"/>
<rect x="8243" y="735.436" width="184" height="369" rx="21" fill="#D9D9D9"/>
<path d="M8290.5 1397.44L8335.53 1424.95C8340.04 1427.71 8345.94 1425.41 8347.39 1420.32L8351.68 1405.29C8352.23 1403.39 8352.63 1401.45 8352.9 1399.49L8356 1376.44L8359.11 1344.46C8359.37 1341.78 8359.37 1339.09 8359.1 1336.41L8356 1305.44L8348.24 1264.71C8348.08 1263.86 8347.85 1263.03 8347.54 1262.22L8346.57 1259.63C8344.56 1254.27 8336.51 1256.64 8337.74 1262.24C8337.91 1263.04 8338.02 1263.84 8338.06 1264.66L8340 1305.44L8290.5 1397.44Z" fill="black"/>
<path d="M8308.59 1395.22L8294 1411.44C8250.38 1411.44 8211.02 1385.26 8194.16 1345.04L8170 1287.44L8202 1171.44L8195.73 1204.48C8192.67 1220.63 8195.22 1237.34 8202.97 1251.84L8222 1287.44L8254 1329.44L8280.11 1342.49C8288.28 1346.58 8298.19 1344.61 8304.17 1337.7L8347.74 1287.44C8347.25 1303.17 8342.71 1318.51 8334.54 1331.96L8330 1339.44C8330 1360.04 8322.37 1379.91 8308.59 1395.22Z" fill="white"/>
<path d="M7814 2135.44L7862.85 2223.98C7872.76 2241.94 7887.42 2256.82 7905.22 2266.99V2266.99C7922.74 2277 7944.5 2275.83 7960.84 2263.99L8003 2233.44" stroke="black" stroke-width="22"/>
<path d="M7485.25 397.619L7497.83 397.908" stroke="white" stroke-opacity="0.2" stroke-width="3"/>
<path d="M7721.03 133.248L7721.34 134.068C7724.8 143.157 7726.76 152.843 7727.14 162.561C7729.48 223.401 7714.37 284.241 7683.54 336.744L7685.32 297.572L7630.25 197.05L7585.98 162.948L7465.1 145.47L7354.21 357.374L7326.81 237.467C7319.66 206.144 7319.87 173.586 7327.44 142.36C7329.41 134.238 7332.42 126.403 7336.39 119.047L7348.63 96.3405C7352.15 89.8256 7356.21 83.6205 7360.77 77.7921C7381.6 51.1951 7409.05 30.5388 7440.37 17.8936L7450.15 13.945C7467.11 7.09947 7485.28 3.78506 7503.56 4.20445L7558.41 5.46252C7578.92 5.93321 7599.07 11.0077 7617.37 20.3112L7629.8 26.6315C7643.27 33.4819 7655.52 42.4982 7666.07 53.3204L7677.49 65.0461C7696.52 84.5646 7711.33 107.777 7721.03 133.248Z" fill="black" stroke="#000AFF" stroke-width="0.1"/>
<path d="M7651.09 528.94L7689.7 491.458L7692.01 391.077L7685.12 325.468L7682.3 257.581C7681.95 249.007 7678.05 240.965 7671.55 235.368L7651.26 217.919C7645.82 213.234 7642.76 206.357 7642.92 199.175L7643.93 155.253L7545.32 156.377L7422.87 145.668L7414.95 189.278C7413.17 199.14 7406.22 207.284 7396.77 210.613C7382.43 215.661 7372.71 229.058 7372.36 244.256L7371.05 301.336L7356.3 395.789L7415.36 564.157L7565.27 612.735L7651.09 528.94Z" fill="#8B5537"/>
<g filter="url(#filter35_f_482_120)">
<path d="M7509.57 389.148L7515.66 398.089C7518.22 401.857 7522.36 404.255 7526.91 404.604L7527.16 404.623C7534.49 405.186 7540.8 399.48 7540.96 392.126V392.126" stroke="black" stroke-opacity="0.3" stroke-width="3"/>
</g>
<path d="M7565.05 485.214L7589.14 480.986C7590.83 480.689 7591.38 478.537 7590.05 477.459L7571.85 462.801L7531.1 456.224L7493.24 460.997L7458.44 471.938C7456.65 472.501 7456.55 475.003 7458.3 475.702L7477 483.194L7565.05 485.214Z" fill="black"/>
<path d="M7423.62 302.254L7406.74 299.898L7414.99 296.186C7422.19 292.943 7429.71 290.47 7437.43 288.81L7437.99 288.691C7442.51 287.72 7447.12 287.282 7451.74 287.388L7453.72 287.434C7461.63 287.615 7469.38 289.671 7476.34 293.432L7486.47 298.906L7471.68 303.644L7453.76 307.747L7444.38 307.532C7438.82 307.404 7433.34 306.09 7428.33 303.677C7426.84 302.962 7425.25 302.482 7423.62 302.254Z" fill="#D9D9D9"/>
<path d="M7638.16 315.363L7652.31 315.688L7643.23 310.198C7633.85 304.523 7623.5 300.631 7612.7 298.716C7604.19 297.207 7595.45 297.488 7587.06 299.542L7574.48 302.618L7581.79 303.914C7587.18 308.474 7593.68 311.543 7600.62 312.814L7612.94 315.068C7616.45 315.71 7620.02 315.974 7623.58 315.854L7638.16 315.363Z" fill="#D9D9D9" stroke="black" stroke-width="0.1"/>
<path d="M7632.51 310.155L7623.16 306.555L7617.53 300.22C7627.56 302.695 7637.19 306.59 7646.11 311.788L7652.84 315.7L7620.32 316.082L7632.51 310.155Z" fill="black"/>
<path d="M7473.91 295.623L7465.66 291.657L7465.73 288.837C7472.3 290.862 7478.61 293.656 7484.53 297.159L7485.44 297.698C7486.21 298.152 7486.04 299.307 7485.18 299.527L7461.15 305.659L7474.02 297.365C7474.67 296.941 7474.61 295.962 7473.91 295.623Z" fill="black"/>
<path d="M7426.72 297.536L7434.65 294.897L7433.72 289.797C7426.39 291.125 7419.31 293.567 7412.72 297.039L7407.27 299.911L7433.4 303.614L7426.63 301.484L7426.72 297.536Z" fill="black"/>
<g filter="url(#filter36_f_482_120)">
<path d="M7584.54 354.753L7579.12 351.812L7628.49 439.837L7615.71 393.916C7614.54 389.712 7612.95 385.639 7610.95 381.76C7605.06 370.309 7595.85 360.898 7584.54 354.753Z" fill="black" fill-opacity="0.31"/>
</g>
<path d="M7463.39 299.172L7463.61 289.662C7463.64 288.558 7462.76 287.642 7461.66 287.617L7448.46 287.314L7434.22 290.937L7435.78 295.922C7437.29 300.768 7440.51 304.898 7444.85 307.543L7458.52 304.927C7461.3 304.396 7463.33 301.998 7463.39 299.172Z" fill="black"/>
<path d="M7596.45 304.833L7596.61 298.048L7611.28 298.384L7623.76 303.185C7623.64 308.115 7621.07 312.66 7616.89 315.288L7616.66 315.435L7601.79 311.792C7598.6 311.011 7596.38 308.116 7596.45 304.833Z" fill="black"/>
<path d="M7593.25 299.16L7593.97 298.551L7585.56 299.487L7585.09 299.794C7582.61 301.411 7582.68 305.071 7585.23 306.584L7590.57 309.758C7589.09 306.017 7590.17 301.749 7593.25 299.16Z" fill="black" fill-opacity="0.74" stroke="black" stroke-width="0.1"/>
<g filter="url(#filter37_f_482_120)">
<path d="M7469.47 308.672C7464.86 311.576 7452.69 317.879 7440.89 319.866L7419.87 322.204" stroke="black" stroke-width="0.5"/>
</g>
<g filter="url(#filter38_f_482_120)">
<path d="M7648.25 332.522L7629.84 329.422C7624.03 328.443 7618.35 326.784 7612.93 324.478L7607.07 321.985" stroke="black"/>
</g>
<path d="M7478.78 495.618L7460.36 477.17L7487.11 470.364C7488.25 470.075 7489.44 470.063 7490.58 470.329L7501.53 472.885C7517.95 476.714 7534.95 477.262 7551.58 474.499C7558.57 473.336 7565.73 473.701 7572.57 475.566L7589.28 480.127L7583.29 488.14C7579.02 493.861 7573.92 498.922 7568.17 503.158C7560.37 508.904 7550.7 511.524 7541.06 510.504L7501.07 506.267C7492.64 505.375 7484.77 501.615 7478.78 495.618Z" fill="#FD7557"/>
<g filter="url(#filter39_f_482_120)">
<path d="M7468.84 359.863L7482.36 341.129L7534.45 264.459L7574.6 343.245L7589.1 364.307C7593.46 370.637 7595.09 378.452 7593.64 385.999C7592.11 393.903 7586.21 400.245 7578.44 402.334L7567.93 405.157L7571.48 387.748L7570.98 387.557C7560.53 383.534 7548.77 384.802 7539.42 390.962L7540.28 393.342C7541.21 395.932 7540.2 398.822 7537.85 400.262C7533.74 402.786 7528.62 403.031 7524.28 400.909L7523.14 400.348C7519.23 398.436 7516.79 394.427 7516.89 390.079C7517.01 384.942 7512.51 380.915 7507.41 381.601L7499.23 382.705L7485.96 389.735L7485.74 399.322L7476.34 395.068C7468.51 391.521 7463.55 383.637 7463.75 375.04C7463.87 369.582 7465.65 364.291 7468.84 359.863Z" stroke="black" stroke-opacity="0.18" stroke-width="4"/>
</g>
<g filter="url(#filter40_f_482_120)">
<path d="M7480.43 288.047L7480.03 287.767C7469.68 280.457 7456.93 277.394 7444.39 279.208V279.208C7435.02 280.562 7425.94 283.443 7417.51 287.734L7406.9 293.131" stroke="black" stroke-width="4"/>
</g>
<g filter="url(#filter41_f_482_120)">
<path d="M7656.16 307.878L7633.36 296.07L7620.3 291.044C7616.56 289.605 7612.6 288.823 7608.59 288.731V288.731C7604.98 288.648 7601.38 289.262 7597.99 290.538L7586.19 294.988" stroke="black" stroke-width="4"/>
</g>
<g filter="url(#filter42_f_482_120)">
<path d="M7647.35 326.295V326.295C7629.37 325.883 7611.65 321.83 7595.28 314.383L7582.21 308.438L7572.8 307.094L7590.62 330.636" stroke="black" stroke-opacity="0.3" stroke-width="2"/>
</g>
<g filter="url(#filter43_f_482_120)">
<path d="M7579.49 312.89L7588.32 316.478L7606.97 326.497L7627.17 337.117" stroke="black" stroke-opacity="0.51" stroke-width="2"/>
</g>
<path d="M7372.89 404.07L7360.43 353.003L7357.17 403.709C7352.94 437.178 7354.91 471.141 7362.98 503.896L7369.94 532.123C7375.03 552.756 7383.54 572.39 7395.13 590.206L7408.67 611.024C7421.41 630.632 7440.03 645.712 7461.86 654.112L7475.62 659.405C7493.62 666.333 7513.16 668.264 7532.18 664.996C7558.51 660.469 7582.82 647.998 7601.86 629.256L7634.93 596.71C7644.11 587.671 7651.71 577.152 7657.41 565.594L7671.21 537.583C7681.15 517.424 7688.03 495.901 7691.65 473.718L7695.12 452.36C7696.49 443.973 7696.7 435.439 7695.75 426.995L7686.73 346.946L7676.85 426.917C7674.05 449.647 7664.8 471.099 7650.19 488.74L7635.88 506.022L7633.8 488.273C7632.31 475.57 7626.66 463.716 7617.73 454.557L7574.12 409.814L7559.5 429.791L7603.77 476.403C7610.51 483.492 7614.16 492.958 7613.94 502.733L7613.77 509.837C7613.55 519.602 7611.02 529.175 7606.4 537.778L7601.7 546.512C7598.95 551.631 7595.46 556.323 7591.36 560.441L7585.01 566.823C7578.05 573.803 7569.77 579.319 7560.65 583.046C7555.08 585.319 7549.16 586.603 7543.16 586.839L7523.07 587.63C7518.39 587.815 7513.7 587.476 7509.09 586.621L7467.46 578.895L7444.86 558.628C7435.62 541.783 7431 522.803 7431.44 503.599L7431.77 489.117C7431.93 481.864 7435.37 475.076 7441.12 470.65L7496.09 428.337L7483.87 412.258L7450.28 434.602C7445.35 437.879 7440.75 441.628 7436.56 445.798L7420.36 461.88C7414.49 467.708 7411.1 475.583 7410.91 483.853L7410.21 514.387L7372.89 404.07Z" fill="black" stroke="black" stroke-width="0.1"/>
<g filter="url(#filter44_f_482_120)">
<path d="M7547.31 311.37L7537.42 281.808C7537 280.571 7535.86 279.727 7534.55 279.697C7532.71 279.654 7531.05 280.777 7530.4 282.497L7520.55 308.583C7517.44 316.809 7512.9 324.416 7507.12 331.046L7504.94 333.544C7500.06 339.145 7494.05 343.65 7487.31 346.76C7479.19 350.5 7473.65 358.234 7472.71 367.119L7471.54 378.121L7505.41 364.792L7516.52 359.349C7528.46 353.497 7542.18 352.419 7554.89 356.335L7574.59 366.379L7592.18 376.938L7592.33 370.171L7579.13 351.249L7576.54 349.529C7562.82 340.417 7552.53 326.988 7547.31 311.37Z" fill="#DAA06D" fill-opacity="0.42"/>
</g>
<path d="M7589.62 465.328L7589.41 474.487L7563.35 466.748C7557.14 464.904 7550.72 463.895 7544.24 463.746L7533.03 463.489L7516.26 463.104L7499.49 462.72L7492.02 462.548C7490.03 462.503 7488.03 462.756 7486.11 463.301L7457.34 471.458L7463.08 457.198C7466.59 448.481 7472.66 441.037 7480.5 435.858C7486.63 431.808 7493.38 428.784 7500.49 426.906L7506.82 425.23C7509.42 424.544 7512.17 424.889 7514.52 426.191L7527.86 433.6C7531.46 435.601 7535.84 435.613 7539.45 433.632L7548.95 428.427C7552.63 426.406 7557.11 426.462 7560.75 428.575L7566.65 432.007C7573.24 435.833 7579 440.911 7583.63 446.956C7587.66 452.219 7589.78 458.7 7589.62 465.328Z" fill="#925F33"/>
<path d="M7589.52 470.004L7589.34 477.872L7562.67 470.466C7556.85 468.849 7550.85 467.962 7544.81 467.823L7532.94 467.551L7516.17 467.166L7499.4 466.781L7491.73 466.605C7489.86 466.563 7488 466.781 7486.2 467.254L7457.26 474.843L7462.61 462.452C7466.34 453.79 7472.66 446.495 7480.7 441.562C7486.61 437.935 7493.05 435.249 7499.78 433.602L7506.75 431.899C7509.3 431.274 7512 431.596 7514.33 432.805L7528.04 439.905C7531.47 441.683 7535.55 441.698 7539 439.944L7549.12 434.797C7552.63 433.008 7556.8 433.062 7560.27 434.941L7567.09 438.636C7573.3 441.996 7578.79 446.523 7583.28 451.968C7587.45 457.037 7589.67 463.438 7589.52 470.004Z" fill="#5A3019"/>
<path d="M7659.44 274.69L7671.33 286.785L7661.06 266.221C7650.19 244.46 7625.23 233.678 7601.94 240.677L7561.99 252.679C7568.37 259.87 7577.94 263.37 7587.46 261.994L7611.48 258.519C7629.13 255.967 7646.94 261.972 7659.44 274.69Z" fill="black"/>
<path d="M7405.91 272.259L7393.48 283.797L7404.68 263.726C7416.54 242.486 7441.96 232.859 7464.91 240.92L7504.26 254.741C7497.56 261.631 7487.84 264.689 7478.4 262.878L7454.56 258.305C7437.04 254.946 7418.98 260.128 7405.91 272.259Z" fill="black"/>
<g filter="url(#filter45_f_482_120)">
<path d="M7651.89 311.166L7622.98 298.419C7615.43 295.087 7607.06 294.056 7598.92 295.455L7576.65 299.284" stroke="white" stroke-opacity="0.2" stroke-width="3"/>
</g>
<g filter="url(#filter46_f_482_120)">
<path d="M7482.5 289.225L7479.29 288.311C7461.69 283.308 7443 283.723 7425.64 289.502L7411.07 294.357" stroke="white" stroke-opacity="0.31" stroke-width="3"/>
</g>
<g filter="url(#filter47_f_482_120)">
<path d="M7520 391.644L7517.47 388.376C7514.62 384.71 7510.04 382.837 7505.44 383.463L7495.69 384.788C7489.09 385.687 7483.93 390.947 7483.16 397.57V397.57" stroke="black" stroke-opacity="0.52" stroke-width="4"/>
</g>
<g filter="url(#filter48_f_482_120)">
<path d="M7572.25 399.617L7572.9 395.013C7573.25 392.506 7571.67 390.133 7569.22 389.488L7555.91 385.981C7549.55 384.305 7542.75 386.77 7538.87 392.081V392.081" stroke="black" stroke-width="4"/>
</g>
<g filter="url(#filter49_f_482_120)">
<path d="M7578.49 402.016L7560.67 401.607" stroke="black" stroke-opacity="0.51" stroke-width="3"/>
</g>
<g filter="url(#filter50_f_482_120)">
<path d="M7499.93 397.956L7482.11 397.547" stroke="black" stroke-opacity="0.66" stroke-width="2"/>
</g>
<path d="M7391 1485.44V1553.44" stroke="white" stroke-opacity="0.2" stroke-width="3"/>
<path d="M3341.81 3146.03L3395 3033L3331 2993L3235 3169H3305.62C3321.11 3169 3335.21 3160.05 3341.81 3146.03Z" fill="#565353"/>
<path d="M6007.19 3147.03L5954 3034L6018 2994L6114 3170H6043.38C6027.89 3170 6013.79 3161.05 6007.19 3147.03Z" fill="#464242"/>
<path d="M3155 3020V2985H3403V3020C3403 3022.76 3400.76 3025 3398 3025H3160C3157.24 3025 3155 3022.76 3155 3020Z" fill="#000AFF"/>
<path d="M6194 3021V2986H5946V3021C5946 3023.76 5948.24 3026 5951 3026H6189C6191.76 3026 6194 3023.76 6194 3021Z" fill="#000AFF"/>
<path d="M4995.64 1999.4L4908.04 1853.4C4906.77 1851.29 4904.5 1850 4902.04 1850H4606.33C4603.67 1850 4601.25 1851.5 4600.07 1853.87L4527.07 1999.87C4524.74 2004.52 4528.12 2010 4533.33 2010H4989.64C4995.08 2010 4998.44 2004.06 4995.64 1999.4Z" fill="#D9D9D9"/>
<path d="M6484.46 1984.3L6790 2046L6757.06 2099.21C6745.21 2118.35 6724.3 2130 6701.79 2130H2755C2719.1 2130 2690 2100.9 2690 2065V2058.81C2690 2022.99 2718.99 1993.92 2754.81 1993.81L6471.41 1983.02C6475.79 1983.01 6480.17 1983.44 6484.46 1984.3Z" fill="#D9D9D9"/>
<path d="M4087.92 1967.05L4033.45 2047.06C4030.28 2051.71 4033.61 2058 4039.23 2058H5275.15C5281.07 2058 5284.32 2051.11 5280.55 2046.55L5212.11 1963.55C5210.77 1961.94 5208.78 1961 5206.69 1961.01L4650 1962.5L4093.69 1963.99C4091.38 1964 4089.22 1965.14 4087.92 1967.05Z" fill="black"/>
<path d="M2625 2026H6715C6807.23 2026 6882 2100.77 6882 2193V2835C6882 2927.23 6807.23 3002 6715 3002H2625C2532.77 3002 2458 2927.23 2458 2835V2193C2458 2100.77 2532.77 2026 2625 2026Z" fill="#370813"/>
<path d="M2619 2106H6717C6752.9 2106 6782 2135.1 6782 2171V2841C6782 2876.9 6752.9 2906 6717 2906H2619C2583.1 2906 2554 2876.9 2554 2841V2171C2554 2135.1 2583.1 2106 2619 2106Z" fill="#0A0F76"/>
<path d="M2674 2202H4602V2818H2674V2202Z" fill="white"/>
<path d="M4762 2178H6658V2810H4762V2178Z" fill="white"/>
<path d="M6170.18 3215.37L6106 3010H5986L6100.33 3253.91C6103.79 3261.29 6111.2 3266 6119.35 3266H6132.95C6159.26 3266 6178.03 3240.48 6170.18 3215.37Z" fill="#D9D9D9"/>
<path d="M3178.82 3214.37L3243 3009H3363L3248.67 3252.91C3245.21 3260.29 3237.8 3265 3229.65 3265H3216.05C3189.74 3265 3170.97 3239.48 3178.82 3214.37Z" fill="#D9D9D9"/>
<path d="M3138 1930V218H6170V1930H3138Z" fill="black"/>
<path d="M3170 1902L3174 251L6133 254L6138 1896L3170 1902Z" fill="#D9D9D9"/>
<g filter="url(#filter51_i_482_120)">
<path d="M2577 2354H2619C2622.87 2354 2626 2357.13 2626 2361V2627C2626 2630.87 2622.87 2634 2619 2634H2577C2573.13 2634 2570 2630.87 2570 2627V2361C2570 2357.13 2573.13 2354 2577 2354Z" fill="#D9D9D9"/>
</g>
<g filter="url(#filter52_i_482_120)">
<path d="M4646 2363H4688C4691.87 2363 4695 2366.13 4695 2370V2636C4695 2639.87 4691.87 2643 4688 2643H4646C4642.13 2643 4639 2639.87 4639 2636V2370C4639 2366.13 4642.13 2363 4646 2363Z" fill="#D9D9D9"/>
</g>
<g filter="url(#filter53_i_482_120)">
<path d="M6701 2356H6743C6746.87 2356 6750 2359.13 6750 2363V2629C6750 2632.87 6746.87 2636 6743 2636H6701C6697.13 2636 6694 2632.87 6694 2629V2363C6694 2359.13 6697.13 2356 6701 2356Z" fill="#D9D9D9"/>
</g>
<defs>
<filter id="filter0_f_482_120" x="7341.75" y="852.391" width="9" height="312.422" filterUnits="userSpaceOnUse" color-interpolation-filters="sRGB">
<feFlood flood-opacity="0" result="BackgroundImageFix"/>
<feBlend mode="normal" in="SourceGraphic" in2="BackgroundImageFix" result="shape"/>
<feGaussianBlur stdDeviation="2" result="effect1_foregroundBlur_482_120"/>
</filter>
<filter id="filter1_f_482_120" x="7672.97" y="4455.69" width="298.649" height="187.318" filterUnits="userSpaceOnUse" color-interpolation-filters="sRGB">
<feFlood flood-opacity="0" result="BackgroundImageFix"/>
<feBlend mode="normal" in="SourceGraphic" in2="BackgroundImageFix" result="shape"/>
<feGaussianBlur stdDeviation="2" result="effect1_foregroundBlur_482_120"/>
</filter>
<filter id="filter2_f_482_120" x="7702.61" y="4327.57" width="261" height="184.759" filterUnits="userSpaceOnUse" color-interpolation-filters="sRGB">
<feFlood flood-opacity="0" result="BackgroundImageFix"/>
<feBlend mode="normal" in="SourceGraphic" in2="BackgroundImageFix" result="shape"/>
<feGaussianBlur stdDeviation="2" result="effect1_foregroundBlur_482_120"/>
</filter>
<filter id="filter3_f_482_120" x="7727.14" y="4618.13" width="253.71" height="49.9512" filterUnits="userSpaceOnUse" color-interpolation-filters="sRGB">
<feFlood flood-opacity="0" result="BackgroundImageFix"/>
<feBlend mode="normal" in="SourceGraphic" in2="BackgroundImageFix" result="shape"/>
<feGaussianBlur stdDeviation="2" result="effect1_foregroundBlur_482_120"/>
</filter>
<filter id="filter4_f_482_120" x="6922.89" y="4455.83" width="491.202" height="142.909" filterUnits="userSpaceOnUse" color-interpolation-filters="sRGB">
<feFlood flood-opacity="0" result="BackgroundImageFix"/>
<feBlend mode="normal" in="SourceGraphic" in2="BackgroundImageFix" result="shape"/>
<feGaussianBlur stdDeviation="2" result="effect1_foregroundBlur_482_120"/>
</filter>
<filter id="filter5_f_482_120" x="7202.38" y="4444.38" width="135.685" height="111.239" filterUnits="userSpaceOnUse" color-interpolation-filters="sRGB">
<feFlood flood-opacity="0" result="BackgroundImageFix"/>
<feBlend mode="normal" in="SourceGraphic" in2="BackgroundImageFix" result="shape"/>
<feGaussianBlur stdDeviation="2" result="effect1_foregroundBlur_482_120"/>
</filter>
<filter id="filter6_f_482_120" x="7141" y="4293.38" width="76.9629" height="170.695" filterUnits="userSpaceOnUse" color-interpolation-filters="sRGB">
<feFlood flood-opacity="0" result="BackgroundImageFix"/>
<feBlend mode="normal" in="SourceGraphic" in2="BackgroundImageFix" result="shape"/>
<feGaussianBlur stdDeviation="2" result="effect1_foregroundBlur_482_120"/>
</filter>
<filter id="filter7_f_482_120" x="6964.61" y="4520.06" width="49.6924" height="26.3115" filterUnits="userSpaceOnUse" color-interpolation-filters="sRGB">
<feFlood flood-opacity="0" result="BackgroundImageFix"/>
<feBlend mode="normal" in="SourceGraphic" in2="BackgroundImageFix" result="shape"/>
<feGaussianBlur stdDeviation="2" result="effect1_foregroundBlur_482_120"/>
</filter>
<filter id="filter8_f_482_120" x="7578" y="2262.35" width="395.176" height="2070.29" filterUnits="userSpaceOnUse" color-interpolation-filters="sRGB">
<feFlood flood-opacity="0" result="BackgroundImageFix"/>
<feBlend mode="normal" in="SourceGraphic" in2="BackgroundImageFix" result="shape"/>
<feGaussianBlur stdDeviation="2" result="effect1_foregroundBlur_482_120"/>
</filter>
<filter id="filter9_f_482_120" x="7901.91" y="2400.29" width="60.7666" height="61.3242" filterUnits="userSpaceOnUse" color-interpolation-filters="sRGB">
<feFlood flood-opacity="0" result="BackgroundImageFix"/>
<feBlend mode="normal" in="SourceGraphic" in2="BackgroundImageFix" result="shape"/>
<feGaussianBlur stdDeviation="1.5" result="effect1_foregroundBlur_482_120"/>
</filter>
<filter id="filter10_f_482_120" x="7746.3" y="1410.59" width="4.30078" height="404.556" filterUnits="userSpaceOnUse" color-interpolation-filters="sRGB">
<feFlood flood-opacity="0" result="BackgroundImageFix"/>
<feBlend mode="normal" in="SourceGraphic" in2="BackgroundImageFix" result="shape"/>
<feGaussianBlur stdDeviation="1" result="effect1_foregroundBlur_482_120"/>
</filter>
<filter id="filter11_f_482_120" x="8020.89" y="1352.76" width="139.42" height="197.501" filterUnits="userSpaceOnUse" color-interpolation-filters="sRGB">
<feFlood flood-opacity="0" result="BackgroundImageFix"/>
<feBlend mode="normal" in="SourceGraphic" in2="BackgroundImageFix" result="shape"/>
<feGaussianBlur stdDeviation="3.55" result="effect1_foregroundBlur_482_120"/>
</filter>
<filter id="filter12_f_482_120" x="7008.26" y="861.254" width="165.863" height="38.333" filterUnits="userSpaceOnUse" color-interpolation-filters="sRGB">
<feFlood flood-opacity="0" result="BackgroundImageFix"/>
<feBlend mode="normal" in="SourceGraphic" in2="BackgroundImageFix" result="shape"/>
<feGaussianBlur stdDeviation="1" result="effect1_foregroundBlur_482_120"/>
</filter>
<filter id="filter13_f_482_120" x="7169.63" y="908.965" width="176.641" height="416.751" filterUnits="userSpaceOnUse" color-interpolation-filters="sRGB">
<feFlood flood-opacity="0" result="BackgroundImageFix"/>
<feBlend mode="normal" in="SourceGraphic" in2="BackgroundImageFix" result="shape"/>
<feGaussianBlur stdDeviation="1.15" result="effect1_foregroundBlur_482_120"/>
</filter>
<filter id="filter14_f_482_120" x="7179.49" y="908.978" width="176.549" height="416.713" filterUnits="userSpaceOnUse" color-interpolation-filters="sRGB">
<feFlood flood-opacity="0" result="BackgroundImageFix"/>
<feBlend mode="normal" in="SourceGraphic" in2="BackgroundImageFix" result="shape"/>
<feGaussianBlur stdDeviation="1.15" result="effect1_foregroundBlur_482_120"/>
</filter>
<filter id="filter15_f_482_120" x="6820.92" y="1426.6" width="236.171" height="132.975" filterUnits="userSpaceOnUse" color-interpolation-filters="sRGB">
<feFlood flood-opacity="0" result="BackgroundImageFix"/>
<feBlend mode="normal" in="SourceGraphic" in2="BackgroundImageFix" result="shape"/>
<feGaussianBlur stdDeviation="1.3" result="effect1_foregroundBlur_482_120"/>
</filter>
<filter id="filter16_f_482_120" x="7719.23" y="1319.03" width="4.5" height="347.333" filterUnits="userSpaceOnUse" color-interpolation-filters="sRGB">
<feFlood flood-opacity="0" result="BackgroundImageFix"/>
<feBlend mode="normal" in="SourceGraphic" in2="BackgroundImageFix" result="shape"/>
<feGaussianBlur stdDeviation="1" result="effect1_foregroundBlur_482_120"/>
</filter>
<filter id="filter17_f_482_120" x="7690.25" y="1646.39" width="233.894" height="42.583" filterUnits="userSpaceOnUse" color-interpolation-filters="sRGB">
<feFlood flood-opacity="0" result="BackgroundImageFix"/>
<feBlend mode="normal" in="SourceGraphic" in2="BackgroundImageFix" result="shape"/>
<feGaussianBlur stdDeviation="2" result="effect1_foregroundBlur_482_120"/>
</filter>
<filter id="filter18_f_482_120" x="7696.4" y="1690.53" width="258.604" height="7.19922" filterUnits="userSpaceOnUse" color-interpolation-filters="sRGB">
<feFlood flood-opacity="0" result="BackgroundImageFix"/>
<feBlend mode="normal" in="SourceGraphic" in2="BackgroundImageFix" result="shape"/>
<feGaussianBlur stdDeviation="1.5" result="effect1_foregroundBlur_482_120"/>
</filter>
<filter id="filter19_f_482_120" x="7637.19" y="677.077" width="333.22" height="603.766" filterUnits="userSpaceOnUse" color-interpolation-filters="sRGB">
<feFlood flood-opacity="0" result="BackgroundImageFix"/>
<feBlend mode="normal" in="SourceGraphic" in2="BackgroundImageFix" result="shape"/>
<feGaussianBlur stdDeviation="2.5" result="effect1_foregroundBlur_482_120"/>
</filter>
<filter id="filter20_f_482_120" x="6993" y="883.436" width="360.704" height="584.512" filterUnits="userSpaceOnUse" color-interpolation-filters="sRGB">
<feFlood flood-opacity="0" result="BackgroundImageFix"/>
<feBlend mode="normal" in="SourceGraphic" in2="BackgroundImageFix" result="shape"/>
<feGaussianBlur stdDeviation="2.5" result="effect1_foregroundBlur_482_120"/>
</filter>
<filter id="filter21_f_482_120" x="7817.57" y="2438.14" width="122.192" height="140.259" filterUnits="userSpaceOnUse" color-interpolation-filters="sRGB">
<feFlood flood-opacity="0" result="BackgroundImageFix"/>
<feBlend mode="normal" in="SourceGraphic" in2="BackgroundImageFix" result="shape"/>
<feGaussianBlur stdDeviation="1" result="effect1_foregroundBlur_482_120"/>
</filter>
<filter id="filter22_f_482_120" x="7224.53" y="1460.49" width="157.601" height="9.5" filterUnits="userSpaceOnUse" color-interpolation-filters="sRGB">
<feFlood flood-opacity="0" result="BackgroundImageFix"/>
<feBlend mode="normal" in="SourceGraphic" in2="BackgroundImageFix" result="shape"/>
<feGaussianBlur stdDeviation="2" result="effect1_foregroundBlur_482_120"/>
</filter>
<filter id="filter23_f_482_120" x="7091.96" y="1593.24" width="380.909" height="43.833" filterUnits="userSpaceOnUse" color-interpolation-filters="sRGB">
<feFlood flood-opacity="0" result="BackgroundImageFix"/>
<feBlend mode="normal" in="SourceGraphic" in2="BackgroundImageFix" result="shape"/>
<feGaussianBlur stdDeviation="2" result="effect1_foregroundBlur_482_120"/>
</filter>
<filter id="filter24_f_482_120" x="7409.55" y="2464.59" width="235.469" height="125.849" filterUnits="userSpaceOnUse" color-interpolation-filters="sRGB">
<feFlood flood-opacity="0" result="BackgroundImageFix"/>
<feBlend mode="normal" in="SourceGraphic" in2="BackgroundImageFix" result="shape"/>
<feGaussianBlur stdDeviation="2" result="effect1_foregroundBlur_482_120"/>
</filter>
<filter id="filter25_f_482_120" x="7126" y="2047.44" width="534" height="2225.69" filterUnits="userSpaceOnUse" color-interpolation-filters="sRGB">
<feFlood flood-opacity="0" result="BackgroundImageFix"/>
<feBlend mode="normal" in="SourceGraphic" in2="BackgroundImageFix" result="shape"/>
<feGaussianBlur stdDeviation="2" result="effect1_foregroundBlur_482_120"/>
</filter>
<filter id="filter26_f_482_120" x="6949.9" y="4382.72" width="243.438" height="111" filterUnits="userSpaceOnUse" color-interpolation-filters="sRGB">
<feFlood flood-opacity="0" result="BackgroundImageFix"/>
<feBlend mode="normal" in="SourceGraphic" in2="BackgroundImageFix" result="shape"/>
<feGaussianBlur stdDeviation="2" result="effect1_foregroundBlur_482_120"/>
</filter>
<filter id="filter27_f_482_120" x="7815.62" y="4579.57" width="66.8594" height="30.8887" filterUnits="userSpaceOnUse" color-interpolation-filters="sRGB">
<feFlood flood-opacity="0" result="BackgroundImageFix"/>
<feBlend mode="normal" in="SourceGraphic" in2="BackgroundImageFix" result="shape"/>
<feGaussianBlur stdDeviation="2" result="effect1_foregroundBlur_482_120"/>
</filter>
<filter id="filter28_f_482_120" x="7131.41" y="3249.66" width="211.637" height="318.022" filterUnits="userSpaceOnUse" color-interpolation-filters="sRGB">
<feFlood flood-opacity="0" result="BackgroundImageFix"/>
<feBlend mode="normal" in="SourceGraphic" in2="BackgroundImageFix" result="shape"/>
<feGaussianBlur stdDeviation="2" result="effect1_foregroundBlur_482_120"/>
</filter>
<filter id="filter29_f_482_120" x="7131.41" y="3139.79" width="211.637" height="318.022" filterUnits="userSpaceOnUse" color-interpolation-filters="sRGB">
<feFlood flood-opacity="0" result="BackgroundImageFix"/>
<feBlend mode="normal" in="SourceGraphic" in2="BackgroundImageFix" result="shape"/>
<feGaussianBlur stdDeviation="2" result="effect1_foregroundBlur_482_120"/>
</filter>
<filter id="filter30_f_482_120" x="7464.87" y="1424.61" width="523.02" height="676.355" filterUnits="userSpaceOnUse" color-interpolation-filters="sRGB">
<feFlood flood-opacity="0" result="BackgroundImageFix"/>
<feBlend mode="normal" in="SourceGraphic" in2="BackgroundImageFix" result="shape"/>
<feGaussianBlur stdDeviation="2" result="effect1_foregroundBlur_482_120"/>
</filter>
<filter id="filter31_f_482_120" x="7506.56" y="2269.21" width="287.582" height="174.128" filterUnits="userSpaceOnUse" color-interpolation-filters="sRGB">
<feFlood flood-opacity="0" result="BackgroundImageFix"/>
<feBlend mode="normal" in="SourceGraphic" in2="BackgroundImageFix" result="shape"/>
<feGaussianBlur stdDeviation="2" result="effect1_foregroundBlur_482_120"/>
</filter>
<filter id="filter32_f_482_120" x="7079.83" y="1526.11" width="368.514" height="56.7773" filterUnits="userSpaceOnUse" color-interpolation-filters="sRGB">
<feFlood flood-opacity="0" result="BackgroundImageFix"/>
<feBlend mode="normal" in="SourceGraphic" in2="BackgroundImageFix" result="shape"/>
<feGaussianBlur stdDeviation="2" result="effect1_foregroundBlur_482_120"/>
</filter>
<filter id="filter33_f_482_120" x="7204.41" y="1629.2" width="166.304" height="44.5127" filterUnits="userSpaceOnUse" color-interpolation-filters="sRGB">
<feFlood flood-opacity="0" result="BackgroundImageFix"/>
<feBlend mode="normal" in="SourceGraphic" in2="BackgroundImageFix" result="shape"/>
<feGaussianBlur stdDeviation="2" result="effect1_foregroundBlur_482_120"/>
</filter>
<filter id="filter34_f_482_120" x="7624.28" y="3456.72" width="113.456" height="18" filterUnits="userSpaceOnUse" color-interpolation-filters="sRGB">
<feFlood flood-opacity="0" result="BackgroundImageFix"/>
<feBlend mode="normal" in="SourceGraphic" in2="BackgroundImageFix" result="shape"/>
<feGaussianBlur stdDeviation="2" result="effect1_foregroundBlur_482_120"/>
</filter>
<filter id="filter35_f_482_120" x="7501.43" y="381.405" width="47.9338" height="31.6564" filterUnits="userSpaceOnUse" color-interpolation-filters="sRGB">
<feFlood flood-opacity="0" result="BackgroundImageFix"/>
<feBlend mode="normal" in="SourceGraphic" in2="BackgroundImageFix" result="shape"/>
<feGaussianBlur stdDeviation="3.45" result="effect1_foregroundBlur_482_120"/>
</filter>
<filter id="filter36_f_482_120" x="7564.82" y="337.512" width="77.9691" height="116.624" filterUnits="userSpaceOnUse" color-interpolation-filters="sRGB">
<feFlood flood-opacity="0" result="BackgroundImageFix"/>
<feBlend mode="normal" in="SourceGraphic" in2="BackgroundImageFix" result="shape"/>
<feGaussianBlur stdDeviation="7.15" result="effect1_foregroundBlur_482_120"/>
</filter>
<filter id="filter37_f_482_120" x="7416.04" y="304.661" width="57.3627" height="21.5922" filterUnits="userSpaceOnUse" color-interpolation-filters="sRGB">
<feFlood flood-opacity="0" result="BackgroundImageFix"/>
<feBlend mode="normal" in="SourceGraphic" in2="BackgroundImageFix" result="shape"/>
<feGaussianBlur stdDeviation="1.9" result="effect1_foregroundBlur_482_120"/>
</filter>
<filter id="filter38_f_482_120" x="7599.58" y="314.225" width="56.0619" height="26.0902" filterUnits="userSpaceOnUse" color-interpolation-filters="sRGB">
<feFlood flood-opacity="0" result="BackgroundImageFix"/>
<feBlend mode="normal" in="SourceGraphic" in2="BackgroundImageFix" result="shape"/>
<feGaussianBlur stdDeviation="3.65" result="effect1_foregroundBlur_482_120"/>
</filter>
<filter id="filter39_f_482_120" x="7446.04" y="244.838" width="165.811" height="178.791" filterUnits="userSpaceOnUse" color-interpolation-filters="sRGB">
<feFlood flood-opacity="0" result="BackgroundImageFix"/>
<feBlend mode="normal" in="SourceGraphic" in2="BackgroundImageFix" result="shape"/>
<feGaussianBlur stdDeviation="7.85" result="effect1_foregroundBlur_482_120"/>
</filter>
<filter id="filter40_f_482_120" x="7402.79" y="273.498" width="81.9898" height="24.6148" filterUnits="userSpaceOnUse" color-interpolation-filters="sRGB">
<feFlood flood-opacity="0" result="BackgroundImageFix"/>
<feBlend mode="normal" in="SourceGraphic" in2="BackgroundImageFix" result="shape"/>
<feGaussianBlur stdDeviation="1.6" result="effect1_foregroundBlur_482_120"/>
</filter>
<filter id="filter41_f_482_120" x="7581.99" y="283.224" width="78.5957" height="29.9297" filterUnits="userSpaceOnUse" color-interpolation-filters="sRGB">
<feFlood flood-opacity="0" result="BackgroundImageFix"/>
<feBlend mode="normal" in="SourceGraphic" in2="BackgroundImageFix" result="shape"/>
<feGaussianBlur stdDeviation="1.75" result="effect1_foregroundBlur_482_120"/>
</filter>
<filter id="filter42_f_482_120" x="7568.34" y="303.56" width="81.2301" height="29.8795" filterUnits="userSpaceOnUse" color-interpolation-filters="sRGB">
<feFlood flood-opacity="0" result="BackgroundImageFix"/>
<feBlend mode="normal" in="SourceGraphic" in2="BackgroundImageFix" result="shape"/>
<feGaussianBlur stdDeviation="1.1" result="effect1_foregroundBlur_482_120"/>
</filter>
<filter id="filter43_f_482_120" x="7576.31" y="309.163" width="54.1273" height="31.6391" filterUnits="userSpaceOnUse" color-interpolation-filters="sRGB">
<feFlood flood-opacity="0" result="BackgroundImageFix"/>
<feBlend mode="normal" in="SourceGraphic" in2="BackgroundImageFix" result="shape"/>
<feGaussianBlur stdDeviation="1.4" result="effect1_foregroundBlur_482_120"/>
</filter>
<filter id="filter44_f_482_120" x="7452.24" y="260.395" width="159.387" height="137.025" filterUnits="userSpaceOnUse" color-interpolation-filters="sRGB">
<feFlood flood-opacity="0" result="BackgroundImageFix"/>
<feBlend mode="normal" in="SourceGraphic" in2="BackgroundImageFix" result="shape"/>
<feGaussianBlur stdDeviation="9.65" result="effect1_foregroundBlur_482_120"/>
</filter>
<filter id="filter45_f_482_120" x="7572.9" y="289.848" width="83.0957" height="26.1904" filterUnits="userSpaceOnUse" color-interpolation-filters="sRGB">
<feFlood flood-opacity="0" result="BackgroundImageFix"/>
<feBlend mode="normal" in="SourceGraphic" in2="BackgroundImageFix" result="shape"/>
<feGaussianBlur stdDeviation="1.75" result="effect1_foregroundBlur_482_120"/>
</filter>
<filter id="filter46_f_482_120" x="7407.09" y="279.841" width="79.3164" height="19.4395" filterUnits="userSpaceOnUse" color-interpolation-filters="sRGB">
<feFlood flood-opacity="0" result="BackgroundImageFix"/>
<feBlend mode="normal" in="SourceGraphic" in2="BackgroundImageFix" result="shape"/>
<feGaussianBlur stdDeviation="1.75" result="effect1_foregroundBlur_482_120"/>
</filter>
<filter id="filter47_f_482_120" x="7473.67" y="373.844" width="55.4082" height="31.4561" filterUnits="userSpaceOnUse" color-interpolation-filters="sRGB">
<feFlood flood-opacity="0" result="BackgroundImageFix"/>
<feBlend mode="normal" in="SourceGraphic" in2="BackgroundImageFix" result="shape"/>
<feGaussianBlur stdDeviation="3.75" result="effect1_foregroundBlur_482_120"/>
</filter>
<filter id="filter48_f_482_120" x="7529.05" y="375.261" width="54.0914" height="32.8326" filterUnits="userSpaceOnUse" color-interpolation-filters="sRGB">
<feFlood flood-opacity="0" result="BackgroundImageFix"/>
<feBlend mode="normal" in="SourceGraphic" in2="BackgroundImageFix" result="shape"/>
<feGaussianBlur stdDeviation="4.1" result="effect1_foregroundBlur_482_120"/>
</filter>
<filter id="filter49_f_482_120" x="7555.24" y="394.707" width="28.6877" height="14.2082" filterUnits="userSpaceOnUse" color-interpolation-filters="sRGB">
<feFlood flood-opacity="0" result="BackgroundImageFix"/>
<feBlend mode="normal" in="SourceGraphic" in2="BackgroundImageFix" result="shape"/>
<feGaussianBlur stdDeviation="2.7" result="effect1_foregroundBlur_482_120"/>
</filter>
<filter id="filter50_f_482_120" x="7476.59" y="391.047" width="28.8643" height="13.4082" filterUnits="userSpaceOnUse" color-interpolation-filters="sRGB">
<feFlood flood-opacity="0" result="BackgroundImageFix"/>
<feBlend mode="normal" in="SourceGraphic" in2="BackgroundImageFix" result="shape"/>
<feGaussianBlur stdDeviation="2.75" result="effect1_foregroundBlur_482_120"/>
</filter>
<filter id="filter51_i_482_120" x="2566" y="2354" width="60" height="284" filterUnits="userSpaceOnUse" color-interpolation-filters="sRGB">
<feFlood flood-opacity="0" result="BackgroundImageFix"/>
<feBlend mode="normal" in="SourceGraphic" in2="BackgroundImageFix" result="shape"/>
<feColorMatrix in="SourceAlpha" type="matrix" values="0 0 0 0 0 0 0 0 0 0 0 0 0 0 0 0 0 0 127 0" result="hardAlpha"/>
<feOffset dx="-28" dy="30"/>
<feGaussianBlur stdDeviation="2"/>
<feComposite in2="hardAlpha" operator="arithmetic" k2="-1" k3="1"/>
<feColorMatrix type="matrix" values="0 0 0 0 0 0 0 0 0 0 0 0 0 0 0 0 0 0 0.4 0"/>
<feBlend mode="normal" in2="shape" result="effect1_innerShadow_482_120"/>
</filter>
<filter id="filter52_i_482_120" x="4635" y="2363" width="60" height="284" filterUnits="userSpaceOnUse" color-interpolation-filters="sRGB">
<feFlood flood-opacity="0" result="BackgroundImageFix"/>
<feBlend mode="normal" in="SourceGraphic" in2="BackgroundImageFix" result="shape"/>
<feColorMatrix in="SourceAlpha" type="matrix" values="0 0 0 0 0 0 0 0 0 0 0 0 0 0 0 0 0 0 127 0" result="hardAlpha"/>
<feOffset dx="-28" dy="30"/>
<feGaussianBlur stdDeviation="2"/>
<feComposite in2="hardAlpha" operator="arithmetic" k2="-1" k3="1"/>
<feColorMatrix type="matrix" values="0 0 0 0 0 0 0 0 0 0 0 0 0 0 0 0 0 0 0.4 0"/>
<feBlend mode="normal" in2="shape" result="effect1_innerShadow_482_120"/>
</filter>
<filter id="filter53_i_482_120" x="6690" y="2356" width="60" height="284" filterUnits="userSpaceOnUse" color-interpolation-filters="sRGB">
<feFlood flood-opacity="0" result="BackgroundImageFix"/>
<feBlend mode="normal" in="SourceGraphic" in2="BackgroundImageFix" result="shape"/>
<feColorMatrix in="SourceAlpha" type="matrix" values="0 0 0 0 0 0 0 0 0 0 0 0 0 0 0 0 0 0 127 0" result="hardAlpha"/>
<feOffset dx="-28" dy="30"/>
<feGaussianBlur stdDeviation="2"/>
<feComposite in2="hardAlpha" operator="arithmetic" k2="-1" k3="1"/>
<feColorMatrix type="matrix" values="0 0 0 0 0 0 0 0 0 0 0 0 0 0 0 0 0 0 0.4 0"/>
<feBlend mode="normal" in2="shape" result="effect1_innerShadow_482_120"/>
</filter>
</defs>
</svg>
